<?xml version="1.0" encoding="UTF-8" standalone="yes"?><svg xmlns="http://www.w3.org/2000/svg" xmlns:xlink="http://www.w3.org/1999/xlink" height="1187px" style="width:620px;height:1187px;" version="1.1" viewBox="0 0 620 1187" width="620px"><defs><filter height="300%" id="f1" width="300%" x="-1" y="-1"><feGaussianBlur result="blurOut" stdDeviation="2.0"/><feColorMatrix in="blurOut" result="blurOut2" type="matrix" values="0 0 0 0 0 0 0 0 0 0 0 0 0 0 0 0 0 0 .4 0"/><feOffset dx="4.0" dy="4.0" in="blurOut2" result="blurOut3"/><feBlend in="SourceGraphic" in2="blurOut3" mode="normal"/></filter></defs><g><text fill="#000000" font-family="sans-serif" font-size="18" lengthAdjust="spacingAndGlyphs" textLength="227" x="210" y="17.4023">Professional and Scientific</text><text fill="#000000" font-family="sans-serif" font-size="18" lengthAdjust="spacingAndGlyphs" textLength="160" x="243.5" y="38.6016">Staff Management</text><text fill="#000000" font-family="sans-serif" font-size="18" lengthAdjust="spacingAndGlyphs" textLength="0" x="326.5" y="59.8008"/><polygon fill="#FFFFFF" filter="url(#f1)" points="22,87.5977,158,87.5977,165,110.0859,613,110.0859,613,1180.5977,22,1180.5977,22,87.5977" style="stroke: #000000; stroke-width: 2.0;"/><line style="stroke: #000000; stroke-width: 2.0;" x1="22" x2="165" y1="110.0859" y2="110.0859"/><text fill="#000000" font-family="sans-serif" font-size="14" font-weight="bold" lengthAdjust="spacingAndGlyphs" textLength="130" x="25" y="104.1328">Data Management</text><rect fill="#F8F8F8" filter="url(#f1)" height="86.8652" style="stroke: #383838; stroke-width: 1.5;" width="128" x="89" y="123.0977"/><ellipse cx="119.3" cy="139.0977" fill="#C2C2C2" rx="11" ry="11" style="stroke: #383838; stroke-width: 1.0;"/><path d="M122.2731,144.7407 Q121.6921,145.0396 121.0529,145.189 Q120.4138,145.3384 119.7082,145.3384 Q117.2014,145.3384 115.8815,143.6865 Q114.5617,142.0347 114.5617,138.9136 Q114.5617,135.7842 115.8815,134.1323 Q117.2014,132.4805 119.7082,132.4805 Q120.4138,132.4805 121.0612,132.6299 Q121.7087,132.7793 122.2731,133.0781 L122.2731,135.8008 Q121.6423,135.2197 121.0488,134.95 Q120.4553,134.6802 119.8244,134.6802 Q118.4797,134.6802 117.7949,135.7468 Q117.1101,136.8135 117.1101,138.9136 Q117.1101,141.0054 117.7949,142.072 Q118.4797,143.1387 119.8244,143.1387 Q120.4553,143.1387 121.0488,142.8689 Q121.6423,142.5991 122.2731,142.0181 Z "/><text fill="#000000" font-family="sans-serif" font-size="12" lengthAdjust="spacingAndGlyphs" textLength="62" x="136.7" y="143.6328">Role Table</text><line style="stroke: #383838; stroke-width: 1.5;" x1="90" x2="216" y1="155.0977" y2="155.0977"/><rect fill="none" height="6" style="stroke: #595959; stroke-width: 1.0;" width="6" x="97" y="164.0752"/><text fill="#000000" font-family="sans-serif" font-size="11" lengthAdjust="spacingAndGlyphs" textLength="33" x="109" y="169.7324">id : int</text><rect fill="none" height="6" style="stroke: #595959; stroke-width: 1.0;" width="6" x="97" y="177.0303"/><text fill="#000000" font-family="sans-serif" font-size="11" lengthAdjust="spacingAndGlyphs" textLength="102" x="109" y="182.6875">description : string</text><line style="stroke: #383838; stroke-width: 1.5;" x1="90" x2="216" y1="189.0078" y2="189.0078"/><ellipse cx="100" cy="200.9854" fill="#A6A6A6" rx="3" ry="3" style="stroke: #545454; stroke-width: 1.0;"/><text fill="#000000" font-family="sans-serif" font-size="11" lengthAdjust="spacingAndGlyphs" textLength="39" x="109" y="203.6426">CRUD()</text><rect fill="#F8F8F8" filter="url(#f1)" height="125.7305" style="stroke: #383838; stroke-width: 1.5;" width="110" x="98" y="245.5977"/><ellipse cx="119.75" cy="261.5977" fill="#C2C2C2" rx="11" ry="11" style="stroke: #383838; stroke-width: 1.0;"/><path d="M122.7231,267.2407 Q122.1421,267.5396 121.5029,267.689 Q120.8638,267.8384 120.1582,267.8384 Q117.6514,267.8384 116.3315,266.1865 Q115.0117,264.5347 115.0117,261.4136 Q115.0117,258.2842 116.3315,256.6323 Q117.6514,254.9805 120.1582,254.9805 Q120.8638,254.9805 121.5112,255.1299 Q122.1587,255.2793 122.7231,255.5781 L122.7231,258.3008 Q122.0923,257.7197 121.4988,257.45 Q120.9053,257.1802 120.2744,257.1802 Q118.9297,257.1802 118.2449,258.2468 Q117.5601,259.3135 117.5601,261.4136 Q117.5601,263.5054 118.2449,264.572 Q118.9297,265.6387 120.2744,265.6387 Q120.9053,265.6387 121.4988,265.3689 Q122.0923,265.0991 122.7231,264.5181 Z "/><text fill="#000000" font-family="sans-serif" font-size="12" lengthAdjust="spacingAndGlyphs" textLength="63" x="135.25" y="266.1328">User Table</text><line style="stroke: #383838; stroke-width: 1.5;" x1="99" x2="207" y1="277.5977" y2="277.5977"/><rect fill="none" height="6" style="stroke: #595959; stroke-width: 1.0;" width="6" x="106" y="286.5752"/><text fill="#000000" font-family="sans-serif" font-size="11" lengthAdjust="spacingAndGlyphs" textLength="33" x="118" y="292.2324">id : int</text><rect fill="none" height="6" style="stroke: #595959; stroke-width: 1.0;" width="6" x="106" y="299.5303"/><text fill="#000000" font-family="sans-serif" font-size="11" lengthAdjust="spacingAndGlyphs" textLength="70" x="118" y="305.1875">name : String</text><rect fill="none" height="6" style="stroke: #595959; stroke-width: 1.0;" width="6" x="106" y="312.4854"/><text fill="#000000" font-family="sans-serif" font-size="11" lengthAdjust="spacingAndGlyphs" textLength="84" x="118" y="318.1426">address : String</text><rect fill="none" height="6" style="stroke: #595959; stroke-width: 1.0;" width="6" x="106" y="325.4404"/><text fill="#000000" font-family="sans-serif" font-size="11" lengthAdjust="spacingAndGlyphs" textLength="75" x="118" y="331.0977">phone : String</text><rect fill="none" height="6" style="stroke: #595959; stroke-width: 1.0;" width="6" x="106" y="338.3955"/><text fill="#000000" font-family="sans-serif" font-size="11" lengthAdjust="spacingAndGlyphs" textLength="69" x="118" y="344.0527">email : String</text><line style="stroke: #383838; stroke-width: 1.5;" x1="99" x2="207" y1="350.373" y2="350.373"/><ellipse cx="109" cy="362.3506" fill="#A6A6A6" rx="3" ry="3" style="stroke: #545454; stroke-width: 1.0;"/><text fill="#000000" font-family="sans-serif" font-size="11" lengthAdjust="spacingAndGlyphs" textLength="39" x="118" y="365.0078">CRUD()</text><rect fill="#F8F8F8" filter="url(#f1)" height="125.7305" style="stroke: #383838; stroke-width: 1.5;" width="230" x="38" y="406.5977"/><ellipse cx="85.25" cy="422.5977" fill="#C2C2C2" rx="11" ry="11" style="stroke: #383838; stroke-width: 1.0;"/><path d="M88.2231,428.2407 Q87.6421,428.5396 87.0029,428.689 Q86.3638,428.8384 85.6582,428.8384 Q83.1514,428.8384 81.8315,427.1865 Q80.5117,425.5347 80.5117,422.4136 Q80.5117,419.2842 81.8315,417.6323 Q83.1514,415.9805 85.6582,415.9805 Q86.3638,415.9805 87.0112,416.1299 Q87.6587,416.2793 88.2231,416.5781 L88.2231,419.3008 Q87.5923,418.7197 86.9988,418.45 Q86.4053,418.1802 85.7744,418.1802 Q84.4297,418.1802 83.7449,419.2468 Q83.0601,420.3135 83.0601,422.4136 Q83.0601,424.5054 83.7449,425.572 Q84.4297,426.6387 85.7744,426.6387 Q86.4053,426.6387 86.9988,426.3689 Q87.5923,426.0991 88.2231,425.5181 Z "/><text fill="#000000" font-family="sans-serif" font-size="12" lengthAdjust="spacingAndGlyphs" textLength="127" x="105.75" y="427.1328">TempEmployee Table</text><line style="stroke: #383838; stroke-width: 1.5;" x1="39" x2="267" y1="438.5977" y2="438.5977"/><rect fill="none" height="6" style="stroke: #595959; stroke-width: 1.0;" width="6" x="46" y="447.5752"/><text fill="#000000" font-family="sans-serif" font-size="11" lengthAdjust="spacingAndGlyphs" textLength="134" x="58" y="453.2324">qualificationList : [String]</text><rect fill="none" height="6" style="stroke: #595959; stroke-width: 1.0;" width="6" x="46" y="460.5303"/><text fill="#000000" font-family="sans-serif" font-size="11" lengthAdjust="spacingAndGlyphs" textLength="111" x="58" y="466.1875">yearsExperience : int</text><rect fill="none" height="6" style="stroke: #595959; stroke-width: 1.0;" width="6" x="46" y="473.4854"/><text fill="#000000" font-family="sans-serif" font-size="11" lengthAdjust="spacingAndGlyphs" textLength="94" x="58" y="479.1426">is_available : bool</text><rect fill="none" height="6" style="stroke: #595959; stroke-width: 1.0;" width="6" x="46" y="486.4404"/><text fill="#000000" font-family="sans-serif" font-size="11" lengthAdjust="spacingAndGlyphs" textLength="139" x="58" y="492.0977">full_cv : String {link to file}</text><rect fill="none" height="6" style="stroke: #595959; stroke-width: 1.0;" width="6" x="46" y="499.3955"/><text fill="#000000" font-family="sans-serif" font-size="11" lengthAdjust="spacingAndGlyphs" textLength="204" x="58" y="505.0527">staffingRequestList : [StaffingRequest]</text><line style="stroke: #383838; stroke-width: 1.5;" x1="39" x2="267" y1="511.373" y2="511.373"/><ellipse cx="49" cy="523.3506" fill="#A6A6A6" rx="3" ry="3" style="stroke: #545454; stroke-width: 1.0;"/><text fill="#000000" font-family="sans-serif" font-size="11" lengthAdjust="spacingAndGlyphs" textLength="39" x="58" y="526.0078">CRUD()</text><rect fill="#F8F8F8" filter="url(#f1)" height="73.9102" style="stroke: #383838; stroke-width: 1.5;" width="230" x="38" y="567.5977"/><ellipse cx="102.75" cy="583.5977" fill="#C2C2C2" rx="11" ry="11" style="stroke: #383838; stroke-width: 1.0;"/><path d="M105.7231,589.2407 Q105.1421,589.5396 104.5029,589.689 Q103.8638,589.8384 103.1582,589.8384 Q100.6514,589.8384 99.3315,588.1865 Q98.0117,586.5347 98.0117,583.4136 Q98.0117,580.2842 99.3315,578.6323 Q100.6514,576.9805 103.1582,576.9805 Q103.8638,576.9805 104.5112,577.1299 Q105.1587,577.2793 105.7231,577.5781 L105.7231,580.3008 Q105.0923,579.7197 104.4988,579.45 Q103.9053,579.1802 103.2744,579.1802 Q101.9297,579.1802 101.2449,580.2468 Q100.5601,581.3135 100.5601,583.4136 Q100.5601,585.5054 101.2449,586.572 Q101.9297,587.6387 103.2744,587.6387 Q103.9053,587.6387 104.4988,587.3689 Q105.0923,587.0991 105.7231,586.5181 Z "/><text fill="#000000" font-family="sans-serif" font-size="12" lengthAdjust="spacingAndGlyphs" textLength="92" x="123.25" y="588.1328">PSSMUser Table</text><line style="stroke: #383838; stroke-width: 1.5;" x1="39" x2="267" y1="599.5977" y2="599.5977"/><rect fill="none" height="6" style="stroke: #595959; stroke-width: 1.0;" width="6" x="46" y="608.5752"/><text fill="#000000" font-family="sans-serif" font-size="11" lengthAdjust="spacingAndGlyphs" textLength="204" x="58" y="614.2324">staffingRequestList : [StaffingRequest]</text><line style="stroke: #383838; stroke-width: 1.5;" x1="39" x2="267" y1="620.5527" y2="620.5527"/><ellipse cx="49" cy="632.5303" fill="#A6A6A6" rx="3" ry="3" style="stroke: #545454; stroke-width: 1.0;"/><text fill="#000000" font-family="sans-serif" font-size="11" lengthAdjust="spacingAndGlyphs" textLength="39" x="58" y="635.1875">CRUD()</text><rect fill="#F8F8F8" filter="url(#f1)" height="99.8203" style="stroke: #383838; stroke-width: 1.5;" width="230" x="38" y="863.5977"/><ellipse cx="81.35" cy="879.5977" fill="#C2C2C2" rx="11" ry="11" style="stroke: #383838; stroke-width: 1.0;"/><path d="M84.3231,885.2407 Q83.7421,885.5396 83.1029,885.689 Q82.4638,885.8384 81.7582,885.8384 Q79.2514,885.8384 77.9315,884.1865 Q76.6117,882.5347 76.6117,879.4136 Q76.6117,876.2842 77.9315,874.6323 Q79.2514,872.9805 81.7582,872.9805 Q82.4638,872.9805 83.1112,873.1299 Q83.7587,873.2793 84.3231,873.5781 L84.3231,876.3008 Q83.6923,875.7197 83.0988,875.45 Q82.5053,875.1802 81.8744,875.1802 Q80.5297,875.1802 79.8449,876.2468 Q79.1601,877.3135 79.1601,879.4136 Q79.1601,881.5054 79.8449,882.572 Q80.5297,883.6387 81.8744,883.6387 Q82.5053,883.6387 83.0988,883.3689 Q83.6923,883.0991 84.3231,882.5181 Z "/><text fill="#000000" font-family="sans-serif" font-size="12" lengthAdjust="spacingAndGlyphs" textLength="135" x="101.65" y="884.1328">ContractManager Table</text><line style="stroke: #383838; stroke-width: 1.5;" x1="39" x2="267" y1="895.5977" y2="895.5977"/><rect fill="none" height="6" style="stroke: #595959; stroke-width: 1.0;" width="6" x="46" y="904.5752"/><text fill="#000000" font-family="sans-serif" font-size="11" lengthAdjust="spacingAndGlyphs" textLength="90" x="58" y="910.2324">employee_id : int</text><rect fill="none" height="6" style="stroke: #595959; stroke-width: 1.0;" width="6" x="46" y="917.5303"/><text fill="#000000" font-family="sans-serif" font-size="11" lengthAdjust="spacingAndGlyphs" textLength="128" x="58" y="923.1875">contractList : [Contract]</text><rect fill="none" height="6" style="stroke: #595959; stroke-width: 1.0;" width="6" x="46" y="930.4854"/><text fill="#000000" font-family="sans-serif" font-size="11" lengthAdjust="spacingAndGlyphs" textLength="204" x="58" y="936.1426">staffingRequestList : [StaffingRequest]</text><line style="stroke: #383838; stroke-width: 1.5;" x1="39" x2="267" y1="942.4629" y2="942.4629"/><ellipse cx="49" cy="954.4404" fill="#A6A6A6" rx="3" ry="3" style="stroke: #545454; stroke-width: 1.0;"/><text fill="#000000" font-family="sans-serif" font-size="11" lengthAdjust="spacingAndGlyphs" textLength="39" x="58" y="957.0977">CRUD()</text><rect fill="#F8F8F8" filter="url(#f1)" height="151.6406" style="stroke: #383838; stroke-width: 1.5;" width="199" x="53.5" y="676.5977"/><ellipse cx="86.95" cy="692.5977" fill="#C2C2C2" rx="11" ry="11" style="stroke: #383838; stroke-width: 1.0;"/><path d="M89.9231,698.2407 Q89.3421,698.5396 88.7029,698.689 Q88.0638,698.8384 87.3582,698.8384 Q84.8514,698.8384 83.5315,697.1865 Q82.2117,695.5347 82.2117,692.4136 Q82.2117,689.2842 83.5315,687.6323 Q84.8514,685.9805 87.3582,685.9805 Q88.0638,685.9805 88.7112,686.1299 Q89.3587,686.2793 89.9231,686.5781 L89.9231,689.3008 Q89.2923,688.7197 88.6988,688.45 Q88.1053,688.1802 87.4744,688.1802 Q86.1297,688.1802 85.4449,689.2468 Q84.7601,690.3135 84.7601,692.4136 Q84.7601,694.5054 85.4449,695.572 Q86.1297,696.6387 87.4744,696.6387 Q88.1053,696.6387 88.6988,696.3689 Q89.2923,696.0991 89.9231,695.5181 Z "/><text fill="#000000" font-family="sans-serif" font-size="12" lengthAdjust="spacingAndGlyphs" textLength="126" x="105.05" y="697.1328">StaffingRequest Table</text><line style="stroke: #383838; stroke-width: 1.5;" x1="54.5" x2="251.5" y1="708.5977" y2="708.5977"/><rect fill="none" height="6" style="stroke: #595959; stroke-width: 1.0;" width="6" x="61.5" y="717.5752"/><text fill="#000000" font-family="sans-serif" font-size="11" lengthAdjust="spacingAndGlyphs" textLength="33" x="73.5" y="723.2324">id : int</text><rect fill="none" height="6" style="stroke: #595959; stroke-width: 1.0;" width="6" x="61.5" y="730.5303"/><text fill="#000000" font-family="sans-serif" font-size="11" lengthAdjust="spacingAndGlyphs" textLength="101" x="73.5" y="736.1875">contract : Contract</text><rect fill="none" height="6" style="stroke: #595959; stroke-width: 1.0;" width="6" x="61.5" y="743.4854"/><text fill="#000000" font-family="sans-serif" font-size="11" lengthAdjust="spacingAndGlyphs" textLength="134" x="73.5" y="749.1426">qualificationList : [String]</text><rect fill="none" height="6" style="stroke: #595959; stroke-width: 1.0;" width="6" x="61.5" y="756.4404"/><text fill="#000000" font-family="sans-serif" font-size="11" lengthAdjust="spacingAndGlyphs" textLength="173" x="73.5" y="762.0977">minimum_experience_years : int</text><rect fill="none" height="6" style="stroke: #595959; stroke-width: 1.0;" width="6" x="61.5" y="769.3955"/><text fill="#000000" font-family="sans-serif" font-size="11" lengthAdjust="spacingAndGlyphs" textLength="87" x="73.5" y="775.0527">start_date : Date</text><rect fill="none" height="6" style="stroke: #595959; stroke-width: 1.0;" width="6" x="61.5" y="782.3506"/><text fill="#000000" font-family="sans-serif" font-size="11" lengthAdjust="spacingAndGlyphs" textLength="82" x="73.5" y="788.0078">end_date : Date</text><rect fill="none" height="6" style="stroke: #595959; stroke-width: 1.0;" width="6" x="61.5" y="795.3057"/><text fill="#000000" font-family="sans-serif" font-size="11" lengthAdjust="spacingAndGlyphs" textLength="110" x="73.5" y="800.9629">salary_offer : double</text><line style="stroke: #383838; stroke-width: 1.5;" x1="54.5" x2="251.5" y1="807.2832" y2="807.2832"/><ellipse cx="64.5" cy="819.2607" fill="#A6A6A6" rx="3" ry="3" style="stroke: #545454; stroke-width: 1.0;"/><text fill="#000000" font-family="sans-serif" font-size="11" lengthAdjust="spacingAndGlyphs" textLength="39" x="73.5" y="821.918">CRUD()</text><rect fill="#F8F8F8" filter="url(#f1)" height="164.5957" style="stroke: #383838; stroke-width: 1.5;" width="160" x="73" y="999.0977"/><ellipse cx="107.35" cy="1015.0977" fill="#C2C2C2" rx="11" ry="11" style="stroke: #383838; stroke-width: 1.0;"/><path d="M110.3231,1020.7407 Q109.7421,1021.0396 109.1029,1021.189 Q108.4638,1021.3384 107.7582,1021.3384 Q105.2514,1021.3384 103.9315,1019.6865 Q102.6117,1018.0347 102.6117,1014.9136 Q102.6117,1011.7842 103.9315,1010.1323 Q105.2514,1008.4805 107.7582,1008.4805 Q108.4638,1008.4805 109.1112,1008.6299 Q109.7587,1008.7793 110.3231,1009.0781 L110.3231,1011.8008 Q109.6923,1011.2197 109.0988,1010.95 Q108.5053,1010.6802 107.8744,1010.6802 Q106.5297,1010.6802 105.8449,1011.7468 Q105.1601,1012.8135 105.1601,1014.9136 Q105.1601,1017.0054 105.8449,1018.072 Q106.5297,1019.1387 107.8744,1019.1387 Q108.5053,1019.1387 109.0988,1018.8689 Q109.6923,1018.5991 110.3231,1018.0181 Z "/><text fill="#000000" font-family="sans-serif" font-size="12" lengthAdjust="spacingAndGlyphs" textLength="85" x="125.65" y="1019.6328">Contract Table</text><line style="stroke: #383838; stroke-width: 1.5;" x1="74" x2="232" y1="1031.0977" y2="1031.0977"/><rect fill="none" height="6" style="stroke: #595959; stroke-width: 1.0;" width="6" x="81" y="1040.0752"/><text fill="#000000" font-family="sans-serif" font-size="11" lengthAdjust="spacingAndGlyphs" textLength="33" x="93" y="1045.7324">id : int</text><rect fill="none" height="6" style="stroke: #595959; stroke-width: 1.0;" width="6" x="81" y="1053.0303"/><text fill="#000000" font-family="sans-serif" font-size="11" lengthAdjust="spacingAndGlyphs" textLength="70" x="93" y="1058.6875">client : String</text><rect fill="none" height="6" style="stroke: #595959; stroke-width: 1.0;" width="6" x="81" y="1065.9854"/><text fill="#000000" font-family="sans-serif" font-size="11" lengthAdjust="spacingAndGlyphs" textLength="101" x="93" y="1071.6426">short_desc : String</text><rect fill="none" height="6" style="stroke: #595959; stroke-width: 1.0;" width="6" x="81" y="1078.9404"/><text fill="#000000" font-family="sans-serif" font-size="11" lengthAdjust="spacingAndGlyphs" textLength="64" x="93" y="1084.5977">field : String</text><rect fill="none" height="6" style="stroke: #595959; stroke-width: 1.0;" width="6" x="81" y="1091.8955"/><text fill="#000000" font-family="sans-serif" font-size="11" lengthAdjust="spacingAndGlyphs" textLength="134" x="93" y="1097.5527">qualificationList : [String]</text><rect fill="none" height="6" style="stroke: #595959; stroke-width: 1.0;" width="6" x="81" y="1104.8506"/><text fill="#000000" font-family="sans-serif" font-size="11" lengthAdjust="spacingAndGlyphs" textLength="87" x="93" y="1110.5078">start_date : Date</text><rect fill="none" height="6" style="stroke: #595959; stroke-width: 1.0;" width="6" x="81" y="1117.8057"/><text fill="#000000" font-family="sans-serif" font-size="11" lengthAdjust="spacingAndGlyphs" textLength="82" x="93" y="1123.4629">end_date : Date</text><rect fill="none" height="6" style="stroke: #595959; stroke-width: 1.0;" width="6" x="81" y="1130.7607"/><text fill="#000000" font-family="sans-serif" font-size="11" lengthAdjust="spacingAndGlyphs" textLength="134" x="93" y="1136.418">minimum_salary : double</text><line style="stroke: #383838; stroke-width: 1.5;" x1="74" x2="232" y1="1142.7383" y2="1142.7383"/><ellipse cx="84" cy="1154.7158" fill="#A6A6A6" rx="3" ry="3" style="stroke: #545454; stroke-width: 1.0;"/><text fill="#000000" font-family="sans-serif" font-size="11" lengthAdjust="spacingAndGlyphs" textLength="39" x="93" y="1157.373">CRUD()</text><rect fill="#F8F8F8" filter="url(#f1)" height="86.8652" style="stroke: #383838; stroke-width: 1.5;" width="96" x="414.5" y="194.0977"/><ellipse cx="434.45" cy="210.0977" fill="#C2C2C2" rx="11" ry="11" style="stroke: #383838; stroke-width: 1.0;"/><path d="M437.4231,215.7407 Q436.8421,216.0396 436.2029,216.189 Q435.5638,216.3384 434.8582,216.3384 Q432.3514,216.3384 431.0315,214.6865 Q429.7117,213.0347 429.7117,209.9136 Q429.7117,206.7842 431.0315,205.1323 Q432.3514,203.4805 434.8582,203.4805 Q435.5638,203.4805 436.2112,203.6299 Q436.8587,203.7793 437.4231,204.0781 L437.4231,206.8008 Q436.7923,206.2197 436.1988,205.95 Q435.6053,205.6802 434.9744,205.6802 Q433.6297,205.6802 432.9449,206.7468 Q432.2601,207.8135 432.2601,209.9136 Q432.2601,212.0054 432.9449,213.072 Q433.6297,214.1387 434.9744,214.1387 Q435.6053,214.1387 436.1988,213.8689 Q436.7923,213.5991 437.4231,213.0181 Z "/><text fill="#000000" font-family="sans-serif" font-size="12" lengthAdjust="spacingAndGlyphs" textLength="53" x="449.55" y="214.6328">UserDAM</text><line style="stroke: #383838; stroke-width: 1.5;" x1="415.5" x2="509.5" y1="226.0977" y2="226.0977"/><rect fill="none" height="6" style="stroke: #595959; stroke-width: 1.0;" width="6" x="422.5" y="235.0752"/><text fill="#000000" font-family="sans-serif" font-size="11" lengthAdjust="spacingAndGlyphs" textLength="58" x="434.5" y="240.7324">user : User</text><rect fill="none" height="6" style="stroke: #595959; stroke-width: 1.0;" width="6" x="422.5" y="248.0303"/><text fill="#000000" font-family="sans-serif" font-size="11" lengthAdjust="spacingAndGlyphs" textLength="53" x="434.5" y="253.6875">role : Role</text><line style="stroke: #383838; stroke-width: 1.5;" x1="415.5" x2="509.5" y1="260.0078" y2="260.0078"/><ellipse cx="425.5" cy="271.9854" fill="#A6A6A6" rx="3" ry="3" style="stroke: #545454; stroke-width: 1.0;"/><text fill="#000000" font-family="sans-serif" font-size="11" lengthAdjust="spacingAndGlyphs" textLength="70" x="434.5" y="274.6426">CRUD_DAM()</text><rect fill="#F8F8F8" filter="url(#f1)" height="86.8652" style="stroke: #383838; stroke-width: 1.5;" width="194" x="365.5" y="426.0977"/><ellipse cx="400.75" cy="442.0977" fill="#C2C2C2" rx="11" ry="11" style="stroke: #383838; stroke-width: 1.0;"/><path d="M403.7231,447.7407 Q403.1421,448.0396 402.5029,448.189 Q401.8638,448.3384 401.1582,448.3384 Q398.6514,448.3384 397.3315,446.6865 Q396.0117,445.0347 396.0117,441.9136 Q396.0117,438.7842 397.3315,437.1323 Q398.6514,435.4805 401.1582,435.4805 Q401.8638,435.4805 402.5112,435.6299 Q403.1587,435.7793 403.7231,436.0781 L403.7231,438.8008 Q403.0923,438.2197 402.4988,437.95 Q401.9053,437.6802 401.2744,437.6802 Q399.9297,437.6802 399.2449,438.7468 Q398.5601,439.8135 398.5601,441.9136 Q398.5601,444.0054 399.2449,445.072 Q399.9297,446.1387 401.2744,446.1387 Q401.9053,446.1387 402.4988,445.8689 Q403.0923,445.5991 403.7231,445.0181 Z "/><text fill="#000000" font-family="sans-serif" font-size="12" lengthAdjust="spacingAndGlyphs" textLength="117" x="419.25" y="446.6328">TempEmployeeDAM</text><line style="stroke: #383838; stroke-width: 1.5;" x1="366.5" x2="558.5" y1="458.0977" y2="458.0977"/><rect fill="none" height="6" style="stroke: #595959; stroke-width: 1.0;" width="6" x="373.5" y="467.0752"/><text fill="#000000" font-family="sans-serif" font-size="11" lengthAdjust="spacingAndGlyphs" textLength="168" x="385.5" y="472.7324">tempEmployee : TempEmployee</text><line style="stroke: #383838; stroke-width: 1.5;" x1="366.5" x2="558.5" y1="479.0527" y2="479.0527"/><ellipse cx="376.5" cy="491.0303" fill="#A6A6A6" rx="3" ry="3" style="stroke: #545454; stroke-width: 1.0;"/><text fill="#000000" font-family="sans-serif" font-size="11" lengthAdjust="spacingAndGlyphs" textLength="70" x="385.5" y="493.6875">CRUD_DAM()</text><ellipse cx="376.5" cy="503.9854" fill="#A6A6A6" rx="3" ry="3" style="stroke: #545454; stroke-width: 1.0;"/><text fill="#000000" font-family="sans-serif" font-size="11" lengthAdjust="spacingAndGlyphs" textLength="127" x="385.5" y="506.6426">acceptStaffingRequest()</text><rect fill="#F8F8F8" filter="url(#f1)" height="99.8203" style="stroke: #383838; stroke-width: 1.5;" width="203" x="361" y="702.5977"/><ellipse cx="400.75" cy="718.5977" fill="#C2C2C2" rx="11" ry="11" style="stroke: #383838; stroke-width: 1.0;"/><path d="M403.7231,724.2407 Q403.1421,724.5396 402.5029,724.689 Q401.8638,724.8384 401.1582,724.8384 Q398.6514,724.8384 397.3315,723.1865 Q396.0117,721.5347 396.0117,718.4136 Q396.0117,715.2842 397.3315,713.6323 Q398.6514,711.9805 401.1582,711.9805 Q401.8638,711.9805 402.5112,712.1299 Q403.1587,712.2793 403.7231,712.5781 L403.7231,715.3008 Q403.0923,714.7197 402.4988,714.45 Q401.9053,714.1802 401.2744,714.1802 Q399.9297,714.1802 399.2449,715.2468 Q398.5601,716.3135 398.5601,718.4136 Q398.5601,720.5054 399.2449,721.572 Q399.9297,722.6387 401.2744,722.6387 Q401.9053,722.6387 402.4988,722.3689 Q403.0923,722.0991 403.7231,721.5181 Z "/><text fill="#000000" font-family="sans-serif" font-size="12" lengthAdjust="spacingAndGlyphs" textLength="116" x="420.25" y="723.1328">StaffingRequestDAM</text><line style="stroke: #383838; stroke-width: 1.5;" x1="362" x2="563" y1="734.5977" y2="734.5977"/><rect fill="none" height="6" style="stroke: #595959; stroke-width: 1.0;" width="6" x="369" y="743.5752"/><text fill="#000000" font-family="sans-serif" font-size="11" lengthAdjust="spacingAndGlyphs" textLength="177" x="381" y="749.2324">staffingRequest : StaffingRequest</text><line style="stroke: #383838; stroke-width: 1.5;" x1="362" x2="563" y1="755.5527" y2="755.5527"/><ellipse cx="372" cy="767.5303" fill="#A6A6A6" rx="3" ry="3" style="stroke: #545454; stroke-width: 1.0;"/><text fill="#000000" font-family="sans-serif" font-size="11" lengthAdjust="spacingAndGlyphs" textLength="70" x="381" y="770.1875">CRUD_DAM()</text><ellipse cx="372" cy="780.4854" fill="#A6A6A6" rx="3" ry="3" style="stroke: #545454; stroke-width: 1.0;"/><text fill="#000000" font-family="sans-serif" font-size="11" lengthAdjust="spacingAndGlyphs" textLength="123" x="381" y="783.1426">changeRequestStatus()</text><ellipse cx="372" cy="793.4404" fill="#A6A6A6" rx="3" ry="3" style="stroke: #545454; stroke-width: 1.0;"/><text fill="#000000" font-family="sans-serif" font-size="11" lengthAdjust="spacingAndGlyphs" textLength="152" x="381" y="796.0977">sendNotificationsToActors()</text><rect fill="#F8F8F8" filter="url(#f1)" height="99.8203" style="stroke: #383838; stroke-width: 1.5;" width="269" x="328" y="947.5977"/><ellipse cx="420.75" cy="963.5977" fill="#C2C2C2" rx="11" ry="11" style="stroke: #383838; stroke-width: 1.0;"/><path d="M423.7231,969.2407 Q423.1421,969.5396 422.5029,969.689 Q421.8638,969.8384 421.1582,969.8384 Q418.6514,969.8384 417.3315,968.1865 Q416.0117,966.5347 416.0117,963.4136 Q416.0117,960.2842 417.3315,958.6323 Q418.6514,956.9805 421.1582,956.9805 Q421.8638,956.9805 422.5112,957.1299 Q423.1587,957.2793 423.7231,957.5781 L423.7231,960.3008 Q423.0923,959.7197 422.4988,959.45 Q421.9053,959.1802 421.2744,959.1802 Q419.9297,959.1802 419.2449,960.2468 Q418.5601,961.3135 418.5601,963.4136 Q418.5601,965.5054 419.2449,966.572 Q419.9297,967.6387 421.2744,967.6387 Q421.9053,967.6387 422.4988,967.3689 Q423.0923,967.0991 423.7231,966.5181 Z "/><text fill="#000000" font-family="sans-serif" font-size="12" lengthAdjust="spacingAndGlyphs" textLength="75" x="441.25" y="968.1328">ContractDAM</text><line style="stroke: #383838; stroke-width: 1.5;" x1="329" x2="596" y1="979.5977" y2="979.5977"/><rect fill="none" height="6" style="stroke: #595959; stroke-width: 1.0;" width="6" x="336" y="988.5752"/><text fill="#000000" font-family="sans-serif" font-size="11" lengthAdjust="spacingAndGlyphs" textLength="193" x="348" y="994.2324">contractManager : ContractManager</text><rect fill="none" height="6" style="stroke: #595959; stroke-width: 1.0;" width="6" x="336" y="1001.5303"/><text fill="#000000" font-family="sans-serif" font-size="11" lengthAdjust="spacingAndGlyphs" textLength="99" x="348" y="1007.1875">contract : contract</text><line style="stroke: #383838; stroke-width: 1.5;" x1="329" x2="596" y1="1013.5078" y2="1013.5078"/><ellipse cx="339" cy="1025.4854" fill="#A6A6A6" rx="3" ry="3" style="stroke: #545454; stroke-width: 1.0;"/><text fill="#000000" font-family="sans-serif" font-size="11" lengthAdjust="spacingAndGlyphs" textLength="70" x="348" y="1028.1426">CRUD_DAM()</text><ellipse cx="339" cy="1038.4404" fill="#A6A6A6" rx="3" ry="3" style="stroke: #545454; stroke-width: 1.0;"/><text fill="#000000" font-family="sans-serif" font-size="11" lengthAdjust="spacingAndGlyphs" textLength="243" x="348" y="1041.0977">validateContractConstraints(StaffingRequest)</text><path d="M222.555,182.4277 C280.879,195.8977 363.104,214.8787 414.306,226.7007 " fill="none" style="stroke: #383838; stroke-width: 1.0; stroke-dasharray: 7.0,7.0;"/><polygon fill="#383838" points="217.341,181.2277,225.2131,187.1463,222.2133,182.3503,227.0093,179.3505,217.341,181.2277" style="stroke: #383838; stroke-width: 1.0;"/><path d="M213.489,294.8617 C272.079,281.3337 360.408,260.9397 414.322,248.4907 " fill="none" style="stroke: #383838; stroke-width: 1.0; stroke-dasharray: 7.0,7.0;"/><polygon fill="#383838" points="208.267,296.0677,217.9365,297.9386,213.1386,294.9419,216.1353,290.144,208.267,296.0677" style="stroke: #383838; stroke-width: 1.0;"/><path d="M273.33,469.5977 C303.781,469.5977 336.13,469.5977 365.262,469.5977 " fill="none" style="stroke: #383838; stroke-width: 1.0; stroke-dasharray: 7.0,7.0;"/><polygon fill="#383838" points="268.065,469.5977,277.065,473.5977,273.065,469.5977,277.065,465.5977,268.065,469.5977" style="stroke: #383838; stroke-width: 1.0;"/><path d="M251.259,535.8457 C257.016,540.3807 262.64,544.9847 268,549.5977 C323.725,597.5557 381.034,659.5647 418.67,702.3647 " fill="none" style="stroke: #383838; stroke-width: 1.0; stroke-dasharray: 7.0,7.0;"/><polygon fill="#383838" points="247.254,532.7167,251.885,541.4088,251.1946,535.7943,256.8092,535.1039,247.254,532.7167" style="stroke: #383838; stroke-width: 1.0;"/><path d="M237.291,643.9347 C247.639,648.8567 258.069,653.8337 268,658.5977 C298.138,673.0557 330.854,688.8937 360.661,703.3797 " fill="none" style="stroke: #383838; stroke-width: 1.0; stroke-dasharray: 7.0,7.0;"/><polygon fill="#383838" points="232.544,641.6787,238.9543,649.1558,237.0595,643.8257,242.3896,641.9309,232.544,641.6787" style="stroke: #383838; stroke-width: 1.0;"/><path d="M257.868,752.5977 C291.111,752.5977 327.844,752.5977 360.854,752.5977 " fill="none" style="stroke: #383838; stroke-width: 1.0; stroke-dasharray: 7.0,7.0;"/><polygon fill="#383838" points="252.564,752.5977,261.564,756.5977,257.564,752.5977,261.564,748.5977,252.564,752.5977" style="stroke: #383838; stroke-width: 1.0;"/><path d="M254.41,861.0247 C290.258,842.2557 330.522,821.1747 365.95,802.6257 " fill="none" style="stroke: #383838; stroke-width: 1.0; stroke-dasharray: 7.0,7.0;"/><polygon fill="#383838" points="249.609,863.5387,259.4376,862.9067,254.0384,861.219,255.7261,855.8198,249.609,863.5387" style="stroke: #383838; stroke-width: 1.0;"/><path d="M237.199,1011.2137 C247.793,1001.5027 258.309,991.4697 268,981.5977 C325.246,923.2827 385.054,850.3647 422.751,802.6877 " fill="none" style="stroke: #383838; stroke-width: 1.0; stroke-dasharray: 7.0,7.0;"/><polygon fill="#383838" points="233.294,1014.7767,242.6388,1011.6664,236.9879,1011.407,237.2473,1005.7561,233.294,1014.7767" style="stroke: #383838; stroke-width: 1.0;"/><path d="M273.107,946.1347 C291.052,951.0367 309.661,956.1197 327.886,961.0977 " fill="none" style="stroke: #383838; stroke-width: 1.0; stroke-dasharray: 7.0,7.0;"/><polygon fill="#383838" points="268.065,944.7567,275.6932,950.9864,272.8884,946.0739,277.8009,943.2691,268.065,944.7567" style="stroke: #383838; stroke-width: 1.0;"/><path d="M238.303,1058.5687 C265.932,1051.0217 297.348,1042.4387 327.709,1034.1457 " fill="none" style="stroke: #383838; stroke-width: 1.0; stroke-dasharray: 7.0,7.0;"/><polygon fill="#383838" points="233.189,1059.9657,242.9249,1061.4532,238.0124,1058.6484,240.8172,1053.7359,233.189,1059.9657" style="stroke: #383838; stroke-width: 1.0;"/></g></svg>