<?xml version="1.0" encoding="UTF-8" standalone="no"?><svg xmlns="http://www.w3.org/2000/svg" xmlns:xlink="http://www.w3.org/1999/xlink" contentScriptType="application/ecmascript" contentStyleType="text/css" height="1023px" preserveAspectRatio="none" style="width:416px;height:1023px;" version="1.1" viewBox="0 0 416 1023" width="416px" zoomAndPan="magnify"><defs><filter height="300%" id="fnfxxo8" width="300%" x="-1" y="-1"><feGaussianBlur result="blurOut" stdDeviation="2.0"/><feColorMatrix in="blurOut" result="blurOut2" type="matrix" values="0 0 0 0 0 0 0 0 0 0 0 0 0 0 0 0 0 0 .4 0"/><feOffset dx="4.0" dy="4.0" in="blurOut2" result="blurOut3"/><feBlend in="SourceGraphic" in2="blurOut3" mode="normal"/></filter></defs><g><text fill="#000000" font-family="sans-serif" font-size="18" lengthAdjust="spacingAndGlyphs" textLength="227" x="99.5" y="17.4023">Professional and Scientific</text><text fill="#000000" font-family="sans-serif" font-size="18" lengthAdjust="spacingAndGlyphs" textLength="160" x="133" y="38.6016">Staff Management</text><text fill="#000000" font-family="sans-serif" font-size="18" lengthAdjust="spacingAndGlyphs" textLength="0" x="216" y="59.8008"/><!--class TempEmployee--><rect fill="#F8F8F8" filter="url(#fnfxxo8)" height="255.2813" style="stroke: #383838; stroke-width: 1.5;" width="256" x="151.5" y="71.5977"/><ellipse cx="230.25" cy="87.5977" fill="#C2C2C2" rx="11" ry="11" style="stroke: #383838; stroke-width: 1.0;"/><path d="M233.2231,93.2407 Q232.6421,93.5396 232.0029,93.689 Q231.3638,93.8384 230.6582,93.8384 Q228.1514,93.8384 226.8315,92.1865 Q225.5117,90.5347 225.5117,87.4136 Q225.5117,84.2842 226.8315,82.6323 Q228.1514,80.9805 230.6582,80.9805 Q231.3638,80.9805 232.0112,81.1299 Q232.6587,81.2793 233.2231,81.5781 L233.2231,84.3008 Q232.5923,83.7197 231.9988,83.45 Q231.4053,83.1802 230.7744,83.1802 Q229.4297,83.1802 228.7449,84.2468 Q228.0601,85.3135 228.0601,87.4136 Q228.0601,89.5054 228.7449,90.572 Q229.4297,91.6387 230.7744,91.6387 Q231.4053,91.6387 231.9988,91.3689 Q232.5923,91.0991 233.2231,90.5181 Z "/><text fill="#000000" font-family="sans-serif" font-size="12" lengthAdjust="spacingAndGlyphs" textLength="90" x="250.75" y="92.1328">TempEmployee</text><line style="stroke: #383838; stroke-width: 1.5;" x1="152.5" x2="406.5" y1="103.5977" y2="103.5977"/><rect fill="none" height="6" style="stroke: #595959; stroke-width: 1.0;" width="6" x="159.5" y="112.5752"/><text fill="#000000" font-family="sans-serif" font-size="11" lengthAdjust="spacingAndGlyphs" textLength="85" x="171.5" y="118.2324">EmployeeID : int</text><rect fill="none" height="6" style="stroke: #595959; stroke-width: 1.0;" width="6" x="159.5" y="125.5303"/><text fill="#000000" font-family="sans-serif" font-size="11" lengthAdjust="spacingAndGlyphs" textLength="74" x="171.5" y="131.1875">Status : String</text><rect fill="none" height="6" style="stroke: #595959; stroke-width: 1.0;" width="6" x="159.5" y="138.4854"/><text fill="#000000" font-family="sans-serif" font-size="11" lengthAdjust="spacingAndGlyphs" textLength="71" x="171.5" y="144.1426">Name : String</text><rect fill="none" height="6" style="stroke: #595959; stroke-width: 1.0;" width="6" x="159.5" y="151.4404"/><text fill="#000000" font-family="sans-serif" font-size="11" lengthAdjust="spacingAndGlyphs" textLength="86" x="171.5" y="157.0977">Address : String</text><rect fill="none" height="6" style="stroke: #595959; stroke-width: 1.0;" width="6" x="159.5" y="164.3955"/><text fill="#000000" font-family="sans-serif" font-size="11" lengthAdjust="spacingAndGlyphs" textLength="74" x="171.5" y="170.0527">Phone : String</text><rect fill="none" height="6" style="stroke: #595959; stroke-width: 1.0;" width="6" x="159.5" y="177.3506"/><text fill="#000000" font-family="sans-serif" font-size="11" lengthAdjust="spacingAndGlyphs" textLength="69" x="171.5" y="183.0078">Email : String</text><rect fill="none" height="6" style="stroke: #595959; stroke-width: 1.0;" width="6" x="159.5" y="190.3057"/><text fill="#000000" font-family="sans-serif" font-size="11" lengthAdjust="spacingAndGlyphs" textLength="112" x="171.5" y="195.9629">YearsExperience : int</text><rect fill="none" height="6" style="stroke: #595959; stroke-width: 1.0;" width="6" x="159.5" y="203.2607"/><text fill="#000000" font-family="sans-serif" font-size="11" lengthAdjust="spacingAndGlyphs" textLength="79" x="171.5" y="208.918">Degree : String</text><rect fill="none" height="6" style="stroke: #595959; stroke-width: 1.0;" width="6" x="159.5" y="216.2158"/><text fill="#000000" font-family="sans-serif" font-size="11" lengthAdjust="spacingAndGlyphs" textLength="168" x="171.5" y="221.873">Qualifications : { free text field }</text><rect fill="none" height="6" style="stroke: #595959; stroke-width: 1.0;" width="6" x="159.5" y="229.1709"/><text fill="#000000" font-family="sans-serif" font-size="11" lengthAdjust="spacingAndGlyphs" textLength="100" x="171.5" y="234.8281">ExpectedPay : float</text><rect fill="none" height="6" style="stroke: #595959; stroke-width: 1.0;" width="6" x="159.5" y="242.126"/><text fill="#000000" font-family="sans-serif" font-size="11" lengthAdjust="spacingAndGlyphs" textLength="181" x="171.5" y="247.7832">CurrentContract : int {ContractID}</text><rect fill="none" height="6" style="stroke: #595959; stroke-width: 1.0;" width="6" x="159.5" y="255.0811"/><text fill="#000000" font-family="sans-serif" font-size="11" lengthAdjust="spacingAndGlyphs" textLength="230" x="171.5" y="260.7383">PreviousContracts : [int array] {ContractID}</text><line style="stroke: #383838; stroke-width: 1.5;" x1="152.5" x2="406.5" y1="267.0586" y2="267.0586"/><ellipse cx="162.5" cy="279.0361" fill="#A6A6A6" rx="3" ry="3" style="stroke: #545454; stroke-width: 1.0;"/><text fill="#000000" font-family="sans-serif" font-size="11" lengthAdjust="spacingAndGlyphs" textLength="122" x="171.5" y="281.6934">addToEmployeeTable()</text><ellipse cx="162.5" cy="291.9912" fill="#A6A6A6" rx="3" ry="3" style="stroke: #545454; stroke-width: 1.0;"/><text fill="#000000" font-family="sans-serif" font-size="11" lengthAdjust="spacingAndGlyphs" textLength="89" x="171.5" y="294.6484">addToContract()</text><ellipse cx="162.5" cy="304.9463" fill="#A6A6A6" rx="3" ry="3" style="stroke: #545454; stroke-width: 1.0;"/><text fill="#000000" font-family="sans-serif" font-size="11" lengthAdjust="spacingAndGlyphs" textLength="48" x="171.5" y="307.6035">reserve()</text><ellipse cx="162.5" cy="317.9014" fill="#A6A6A6" rx="3" ry="3" style="stroke: #545454; stroke-width: 1.0;"/><text fill="#000000" font-family="sans-serif" font-size="11" lengthAdjust="spacingAndGlyphs" textLength="36" x="171.5" y="320.5586">place()</text><!--class StaffingRequest--><rect fill="#F8F8F8" filter="url(#fnfxxo8)" height="229.3711" style="stroke: #383838; stroke-width: 1.5;" width="267" x="6" y="447.5977"/><ellipse cx="90.75" cy="463.5977" fill="#C2C2C2" rx="11" ry="11" style="stroke: #383838; stroke-width: 1.0;"/><path d="M93.7231,469.2407 Q93.1421,469.5396 92.5029,469.689 Q91.8638,469.8384 91.1582,469.8384 Q88.6514,469.8384 87.3315,468.1865 Q86.0117,466.5347 86.0117,463.4136 Q86.0117,460.2842 87.3315,458.6323 Q88.6514,456.9805 91.1582,456.9805 Q91.8638,456.9805 92.5112,457.1299 Q93.1587,457.2793 93.7231,457.5781 L93.7231,460.3008 Q93.0923,459.7197 92.4988,459.45 Q91.9053,459.1802 91.2744,459.1802 Q89.9297,459.1802 89.2449,460.2468 Q88.5601,461.3135 88.5601,463.4136 Q88.5601,465.5054 89.2449,466.572 Q89.9297,467.6387 91.2744,467.6387 Q91.9053,467.6387 92.4988,467.3689 Q93.0923,467.0991 93.7231,466.5181 Z "/><text fill="#000000" font-family="sans-serif" font-size="12" lengthAdjust="spacingAndGlyphs" textLength="89" x="111.25" y="468.1328">StaffingRequest</text><line style="stroke: #383838; stroke-width: 1.5;" x1="7" x2="272" y1="479.5977" y2="479.5977"/><rect fill="none" height="6" style="stroke: #595959; stroke-width: 1.0;" width="6" x="14" y="488.5752"/><text fill="#000000" font-family="sans-serif" font-size="11" lengthAdjust="spacingAndGlyphs" textLength="77" x="26" y="494.2324">RequestID : int</text><rect fill="none" height="6" style="stroke: #595959; stroke-width: 1.0;" width="6" x="14" y="501.5303"/><text fill="#000000" font-family="sans-serif" font-size="11" lengthAdjust="spacingAndGlyphs" textLength="74" x="26" y="507.1875">Status : String</text><rect fill="none" height="6" style="stroke: #595959; stroke-width: 1.0;" width="6" x="14" y="514.4854"/><text fill="#000000" font-family="sans-serif" font-size="11" lengthAdjust="spacingAndGlyphs" textLength="150" x="26" y="520.1426">ContractID : int {ContractID}</text><rect fill="none" height="6" style="stroke: #595959; stroke-width: 1.0;" width="6" x="14" y="527.4404"/><text fill="#000000" font-family="sans-serif" font-size="11" lengthAdjust="spacingAndGlyphs" textLength="156" x="26" y="533.0977">Description : { free text field }</text><rect fill="none" height="6" style="stroke: #595959; stroke-width: 1.0;" width="6" x="14" y="540.3955"/><text fill="#000000" font-family="sans-serif" font-size="11" lengthAdjust="spacingAndGlyphs" textLength="138" x="26" y="546.0527">ExperienceRequested : int</text><rect fill="none" height="6" style="stroke: #595959; stroke-width: 1.0;" width="6" x="14" y="553.3506"/><text fill="#000000" font-family="sans-serif" font-size="11" lengthAdjust="spacingAndGlyphs" textLength="135" x="26" y="559.0078">DegreeRequested : String</text><rect fill="none" height="6" style="stroke: #595959; stroke-width: 1.0;" width="6" x="14" y="566.3057"/><text fill="#000000" font-family="sans-serif" font-size="11" lengthAdjust="spacingAndGlyphs" textLength="92" x="26" y="571.9629">OfferedPay : float</text><rect fill="none" height="6" style="stroke: #595959; stroke-width: 1.0;" width="6" x="14" y="579.2607"/><text fill="#000000" font-family="sans-serif" font-size="11" lengthAdjust="spacingAndGlyphs" textLength="241" x="26" y="584.918">ReservedEmployees : [int array] {EmployeeID}</text><rect fill="none" height="6" style="stroke: #595959; stroke-width: 1.0;" width="6" x="14" y="592.2158"/><text fill="#000000" font-family="sans-serif" font-size="11" lengthAdjust="spacingAndGlyphs" textLength="226" x="26" y="597.873">PlacedEmployees : [int array] {EmployeeID}</text><line style="stroke: #383838; stroke-width: 1.5;" x1="7" x2="272" y1="604.1934" y2="604.1934"/><ellipse cx="17" cy="616.1709" fill="#A6A6A6" rx="3" ry="3" style="stroke: #545454; stroke-width: 1.0;"/><text fill="#000000" font-family="sans-serif" font-size="11" lengthAdjust="spacingAndGlyphs" textLength="120" x="26" y="618.8281">addToRequestsTable()</text><ellipse cx="17" cy="629.126" fill="#A6A6A6" rx="3" ry="3" style="stroke: #545454; stroke-width: 1.0;"/><text fill="#000000" font-family="sans-serif" font-size="11" lengthAdjust="spacingAndGlyphs" textLength="104" x="26" y="631.7832">assignToContract()</text><ellipse cx="17" cy="642.0811" fill="#A6A6A6" rx="3" ry="3" style="stroke: #545454; stroke-width: 1.0;"/><text fill="#000000" font-family="sans-serif" font-size="11" lengthAdjust="spacingAndGlyphs" textLength="96" x="26" y="644.7383">reserveCandidat()</text><ellipse cx="17" cy="655.0361" fill="#A6A6A6" rx="3" ry="3" style="stroke: #545454; stroke-width: 1.0;"/><text fill="#000000" font-family="sans-serif" font-size="11" lengthAdjust="spacingAndGlyphs" textLength="87" x="26" y="657.6934">placeEmployee()</text><ellipse cx="17" cy="667.9912" fill="#A6A6A6" rx="3" ry="3" style="stroke: #545454; stroke-width: 1.0;"/><text fill="#000000" font-family="sans-serif" font-size="11" lengthAdjust="spacingAndGlyphs" textLength="36" x="26" y="670.6484">close()</text><!--class Contract--><rect fill="#F8F8F8" filter="url(#fnfxxo8)" height="216.416" style="stroke: #383838; stroke-width: 1.5;" width="252" x="135.5" y="797.5977"/><ellipse cx="233.25" cy="813.5977" fill="#C2C2C2" rx="11" ry="11" style="stroke: #383838; stroke-width: 1.0;"/><path d="M236.2231,819.2407 Q235.6421,819.5396 235.0029,819.689 Q234.3638,819.8384 233.6582,819.8384 Q231.1514,819.8384 229.8315,818.1865 Q228.5117,816.5347 228.5117,813.4136 Q228.5117,810.2842 229.8315,808.6323 Q231.1514,806.9805 233.6582,806.9805 Q234.3638,806.9805 235.0112,807.1299 Q235.6587,807.2793 236.2231,807.5781 L236.2231,810.3008 Q235.5923,809.7197 234.9988,809.45 Q234.4053,809.1802 233.7744,809.1802 Q232.4297,809.1802 231.7449,810.2468 Q231.0601,811.3135 231.0601,813.4136 Q231.0601,815.5054 231.7449,816.572 Q232.4297,817.6387 233.7744,817.6387 Q234.4053,817.6387 234.9988,817.3689 Q235.5923,817.0991 236.2231,816.5181 Z "/><text fill="#000000" font-family="sans-serif" font-size="12" lengthAdjust="spacingAndGlyphs" textLength="48" x="253.75" y="818.1328">Contract</text><line style="stroke: #383838; stroke-width: 1.5;" x1="136.5" x2="386.5" y1="829.5977" y2="829.5977"/><rect fill="none" height="6" style="stroke: #595959; stroke-width: 1.0;" width="6" x="143.5" y="838.5752"/><text fill="#000000" font-family="sans-serif" font-size="11" lengthAdjust="spacingAndGlyphs" textLength="81" x="155.5" y="844.2324">ContractID : int</text><rect fill="none" height="6" style="stroke: #595959; stroke-width: 1.0;" width="6" x="143.5" y="851.5303"/><text fill="#000000" font-family="sans-serif" font-size="11" lengthAdjust="spacingAndGlyphs" textLength="111" x="155.5" y="857.1875">ExpirationDate : date</text><rect fill="none" height="6" style="stroke: #595959; stroke-width: 1.0;" width="6" x="143.5" y="864.4854"/><text fill="#000000" font-family="sans-serif" font-size="11" lengthAdjust="spacingAndGlyphs" textLength="128" x="155.5" y="870.1426">Terms : { free text field }</text><rect fill="none" height="6" style="stroke: #595959; stroke-width: 1.0;" width="6" x="143.5" y="877.4404"/><text fill="#000000" font-family="sans-serif" font-size="11" lengthAdjust="spacingAndGlyphs" textLength="102" x="155.5" y="883.0977">ClientName : String</text><rect fill="none" height="6" style="stroke: #595959; stroke-width: 1.0;" width="6" x="143.5" y="890.3955"/><text fill="#000000" font-family="sans-serif" font-size="11" lengthAdjust="spacingAndGlyphs" textLength="117" x="155.5" y="896.0527">ClientAddress : String</text><rect fill="none" height="6" style="stroke: #595959; stroke-width: 1.0;" width="6" x="143.5" y="903.3506"/><text fill="#000000" font-family="sans-serif" font-size="11" lengthAdjust="spacingAndGlyphs" textLength="105" x="155.5" y="909.0078">ClientPhone : String</text><rect fill="none" height="6" style="stroke: #595959; stroke-width: 1.0;" width="6" x="143.5" y="916.3057"/><text fill="#000000" font-family="sans-serif" font-size="11" lengthAdjust="spacingAndGlyphs" textLength="100" x="155.5" y="921.9629">ClientEmail : String</text><rect fill="none" height="6" style="stroke: #595959; stroke-width: 1.0;" width="6" x="143.5" y="929.2607"/><text fill="#000000" font-family="sans-serif" font-size="11" lengthAdjust="spacingAndGlyphs" textLength="114" x="155.5" y="934.918">ClientContact : String</text><rect fill="none" height="6" style="stroke: #595959; stroke-width: 1.0;" width="6" x="143.5" y="942.2158"/><text fill="#000000" font-family="sans-serif" font-size="11" lengthAdjust="spacingAndGlyphs" textLength="226" x="155.5" y="947.873">PlacedEmployees : [int array] {EmployeeID}</text><line style="stroke: #383838; stroke-width: 1.5;" x1="136.5" x2="386.5" y1="954.1934" y2="954.1934"/><ellipse cx="146.5" cy="966.1709" fill="#A6A6A6" rx="3" ry="3" style="stroke: #545454; stroke-width: 1.0;"/><text fill="#000000" font-family="sans-serif" font-size="11" lengthAdjust="spacingAndGlyphs" textLength="124" x="155.5" y="968.8281">addToContractsTable()</text><ellipse cx="146.5" cy="979.126" fill="#A6A6A6" rx="3" ry="3" style="stroke: #545454; stroke-width: 1.0;"/><text fill="#000000" font-family="sans-serif" font-size="11" lengthAdjust="spacingAndGlyphs" textLength="141" x="155.5" y="981.7832">assignToStaffingRequest()</text><ellipse cx="146.5" cy="992.0811" fill="#A6A6A6" rx="3" ry="3" style="stroke: #545454; stroke-width: 1.0;"/><text fill="#000000" font-family="sans-serif" font-size="11" lengthAdjust="spacingAndGlyphs" textLength="108" x="155.5" y="994.7383">assignToEmployee()</text><ellipse cx="146.5" cy="1005.0361" fill="#A6A6A6" rx="3" ry="3" style="stroke: #545454; stroke-width: 1.0;"/><text fill="#000000" font-family="sans-serif" font-size="11" lengthAdjust="spacingAndGlyphs" textLength="113" x="155.5" y="1007.6934">addToEmployee_PC()</text><path d="M230.436,326.6117 C215.185,365.9387 198.473,409.0327 183.582,447.4277 " fill="none" style="stroke: #383838; stroke-width: 1.0;"/><text fill="#000000" font-family="sans-serif" font-size="13" lengthAdjust="spacingAndGlyphs" textLength="22" x="204.7759" y="347.4083">0..*</text><text fill="#000000" font-family="sans-serif" font-size="13" lengthAdjust="spacingAndGlyphs" textLength="8" x="178.275" y="436.7857">1</text><path d="M288.355,326.6267 C293.641,422.7197 298.006,558.0917 290.5,676.5977 C287.99,716.2207 283.05,759.4867 277.949,797.5767 " fill="none" style="stroke: #383838; stroke-width: 1.0;"/><text fill="#000000" font-family="sans-serif" font-size="13" lengthAdjust="spacingAndGlyphs" textLength="22" x="266.2243" y="347.4242">0..*</text><text fill="#000000" font-family="sans-serif" font-size="13" lengthAdjust="spacingAndGlyphs" textLength="8" x="270.8243" y="787.0187">1</text><path d="M180.124,676.8127 C194.022,715.7147 209.514,759.0807 223.221,797.4477 " fill="none" style="stroke: #383838; stroke-width: 1.0;"/><text fill="#000000" font-family="sans-serif" font-size="13" lengthAdjust="spacingAndGlyphs" textLength="22" x="160.1144" y="697.5903">0..*</text><text fill="#000000" font-family="sans-serif" font-size="13" lengthAdjust="spacingAndGlyphs" textLength="8" x="212.2483" y="786.8807">1</text></g></svg>