<?xml version="1.0" encoding="UTF-8" standalone="no"?><svg xmlns="http://www.w3.org/2000/svg" xmlns:xlink="http://www.w3.org/1999/xlink" contentScriptType="application/ecmascript" contentStyleType="text/css" height="682px" preserveAspectRatio="none" style="width:341px;height:682px;" version="1.1" viewBox="0 0 341 682" width="341px" zoomAndPan="magnify"><defs><filter height="300%" id="foowoy9" width="300%" x="-1" y="-1"><feGaussianBlur result="blurOut" stdDeviation="2.0"/><feColorMatrix in="blurOut" result="blurOut2" type="matrix" values="0 0 0 0 0 0 0 0 0 0 0 0 0 0 0 0 0 0 .4 0"/><feOffset dx="4.0" dy="4.0" in="blurOut2" result="blurOut3"/><feBlend in="SourceGraphic" in2="blurOut3" mode="normal"/></filter></defs><g><text fill="#000000" font-family="sans-serif" font-size="18" lengthAdjust="spacingAndGlyphs" textLength="195" x="78.5" y="17.4023">PSSM Staffing Request</text><text fill="#000000" font-family="sans-serif" font-size="18" lengthAdjust="spacingAndGlyphs" textLength="122" x="115" y="38.6016">State Machine</text><text fill="#000000" font-family="sans-serif" font-size="18" lengthAdjust="spacingAndGlyphs" textLength="0" x="179" y="59.8008"/><rect fill="#F8F8F8" filter="url(#foowoy9)" height="603.4883" rx="12.5" ry="12.5" style="stroke: #383838; stroke-width: 1.5;" width="328" x="6" y="71.5977"/><rect fill="#FFFFFF" height="571" rx="12.5" ry="12.5" style="stroke: #FFFFFF; stroke-width: 1.0;" width="322" x="9" y="101.0859"/><line style="stroke: #383838; stroke-width: 1.5;" x1="6" x2="334" y1="98.0859" y2="98.0859"/><text fill="#000000" font-family="sans-serif" font-size="14" lengthAdjust="spacingAndGlyphs" textLength="108" x="116" y="90.1328">StaffingRequest</text><ellipse cx="120.5" cy="121.0859" fill="#000000" filter="url(#foowoy9)" rx="10" ry="10" style="stroke: none; stroke-width: 1.0;"/><rect fill="#F8F8F8" filter="url(#foowoy9)" height="50" rx="12.5" ry="12.5" style="stroke: #383838; stroke-width: 1.5;" width="74" x="83.5" y="199.0859"/><line style="stroke: #383838; stroke-width: 1.5;" x1="83.5" x2="157.5" y1="225.5742" y2="225.5742"/><text fill="#000000" font-family="sans-serif" font-size="14" lengthAdjust="spacingAndGlyphs" textLength="54" x="93.5" y="217.6211">Opened</text><rect fill="#F8F8F8" filter="url(#foowoy9)" height="50" rx="12.5" ry="12.5" style="stroke: #383838; stroke-width: 1.5;" width="93" x="74" y="317.0859"/><line style="stroke: #383838; stroke-width: 1.5;" x1="74" x2="167" y1="343.5742" y2="343.5742"/><text fill="#000000" font-family="sans-serif" font-size="14" lengthAdjust="spacingAndGlyphs" textLength="73" x="84" y="335.6211">InProgress</text><rect fill="#F8F8F8" filter="url(#foowoy9)" height="50" rx="12.5" ry="12.5" style="stroke: #383838; stroke-width: 1.5;" width="75" x="17" y="435.0859"/><line style="stroke: #383838; stroke-width: 1.5;" x1="17" x2="92" y1="461.5742" y2="461.5742"/><text fill="#000000" font-family="sans-serif" font-size="14" lengthAdjust="spacingAndGlyphs" textLength="55" x="27" y="453.6211">Fulfilled</text><rect fill="#F8F8F8" filter="url(#foowoy9)" height="50" rx="12.5" ry="12.5" style="stroke: #383838; stroke-width: 1.5;" width="100" x="141.5" y="435.0859"/><line style="stroke: #383838; stroke-width: 1.5;" x1="141.5" x2="241.5" y1="461.5742" y2="461.5742"/><text fill="#000000" font-family="sans-serif" font-size="14" lengthAdjust="spacingAndGlyphs" textLength="80" x="151.5" y="453.6211">NotPossible</text><rect fill="#F8F8F8" filter="url(#foowoy9)" height="50" rx="12.5" ry="12.5" style="stroke: #383838; stroke-width: 1.5;" width="67" x="90" y="553.0859"/><line style="stroke: #383838; stroke-width: 1.5;" x1="90" x2="157" y1="579.5742" y2="579.5742"/><text fill="#000000" font-family="sans-serif" font-size="14" lengthAdjust="spacingAndGlyphs" textLength="47" x="100" y="571.6211">Closed</text><ellipse cx="123.5" cy="650.0859" fill="none" filter="url(#foowoy9)" rx="10" ry="10" style="stroke: #000000; stroke-width: 1.0;"/><ellipse cx="124" cy="650.5859" fill="#000000" rx="6" ry="6" style="stroke: none; stroke-width: 1.0;"/><path d="M120.5,131.4069 C120.5,145.4529 120.5,172.6499 120.5,193.7899 " fill="none" style="stroke: #383838; stroke-width: 1.0;"/><polygon fill="#383838" points="120.5,199.0219,124.5,190.0219,120.5,194.0219,116.5,190.0219,120.5,199.0219" style="stroke: #383838; stroke-width: 1.0;"/><text fill="#000000" font-family="sans-serif" font-size="13" lengthAdjust="spacingAndGlyphs" textLength="130" x="121.5" y="162.6543">Created Outstanding</text><text fill="#000000" font-family="sans-serif" font-size="13" lengthAdjust="spacingAndGlyphs" textLength="103" x="137" y="177.9648">Staffing Request</text><path d="M120.5,249.1209 C120.5,267.3189 120.5,292.4039 120.5,311.7789 " fill="none" style="stroke: #383838; stroke-width: 1.0;"/><polygon fill="#383838" points="120.5,317.0819,124.5,308.0819,120.5,312.0819,116.5,308.0819,120.5,317.0819" style="stroke: #383838; stroke-width: 1.0;"/><text fill="#000000" font-family="sans-serif" font-size="13" lengthAdjust="spacingAndGlyphs" textLength="32" x="159.5" y="280.6543">PSSM</text><text fill="#000000" font-family="sans-serif" font-size="13" lengthAdjust="spacingAndGlyphs" textLength="104" x="125.5" y="295.9648">Employee review</text><path d="M78.0128,367.1559 C71.9407,372.3279 66.4316,378.3119 62.5,385.0859 C54.7588,398.4239 52.4967,415.4079 52.2874,429.7409 " fill="none" style="stroke: #383838; stroke-width: 1.0;"/><polygon fill="#383838" points="52.2969,434.8889,56.2789,425.881,52.2869,429.8889,48.2789,425.897,52.2969,434.8889" style="stroke: #383838; stroke-width: 1.0;"/><text fill="#000000" font-family="sans-serif" font-size="13" lengthAdjust="spacingAndGlyphs" textLength="95" x="63.5" y="398.6543">TempEmployee</text><text fill="#000000" font-family="sans-serif" font-size="13" lengthAdjust="spacingAndGlyphs" textLength="43" x="89.5" y="413.9648">Agrees</text><path d="M145.505,367.2369 C150.519,372.8089 155.475,378.9199 159.5,385.0859 C168.642,399.0919 176.221,416.1449 181.705,430.3499 " fill="none" style="stroke: #383838; stroke-width: 1.0;"/><polygon fill="#383838" points="183.484,435.0489,184.0386,425.2157,181.7138,430.3728,176.5568,428.048,183.484,435.0489" style="stroke: #383838; stroke-width: 1.0;"/><text fill="#000000" font-family="sans-serif" font-size="13" lengthAdjust="spacingAndGlyphs" textLength="95" x="177.5" y="398.6543">TempEmployee</text><text fill="#000000" font-family="sans-serif" font-size="13" lengthAdjust="spacingAndGlyphs" textLength="66" x="192" y="413.9648">Not Found</text><path d="M46.7596,485.3179 C43.3691,500.5859 41.8685,520.1619 50.5,535.0859 C58.1949,548.3909 71.8786,557.8509 85.3356,564.3799 " fill="none" style="stroke: #383838; stroke-width: 1.0;"/><polygon fill="#383838" points="89.8816,566.4831,83.3932,559.0737,85.3438,564.3836,80.0339,566.3342,89.8816,566.4831" style="stroke: #383838; stroke-width: 1.0;"/><text fill="#000000" font-family="sans-serif" font-size="13" lengthAdjust="spacingAndGlyphs" textLength="111" x="51.5" y="516.6543">Contract Manager</text><text fill="#000000" font-family="sans-serif" font-size="13" lengthAdjust="spacingAndGlyphs" textLength="94" x="62" y="531.9648">closes Request</text><path d="M188.636,485.1789 C185.979,500.3919 180.942,519.9579 171.5,535.0859 C168.385,540.0759 164.496,544.8039 160.289,549.1639 " fill="none" style="stroke: #383838; stroke-width: 1.0;"/><polygon fill="#383838" points="156.689,552.7369,165.8949,549.2367,160.2381,549.215,160.2598,543.5582,156.689,552.7369" style="stroke: #383838; stroke-width: 1.0;"/><text fill="#000000" font-family="sans-serif" font-size="13" lengthAdjust="spacingAndGlyphs" textLength="111" x="184.5" y="516.6543">Contract Manager</text><text fill="#000000" font-family="sans-serif" font-size="13" lengthAdjust="spacingAndGlyphs" textLength="94" x="195" y="531.9648">closes Request</text><path d="M123.5,603.1759 C123.5,613.6561 123.5,625.5864 123.5,634.6581 " fill="none" style="stroke: #383838; stroke-width: 1.0;"/><polygon fill="#383838" points="123.5,639.8987,127.5,630.8987,123.5,634.8987,119.5,630.8987,123.5,639.8987" style="stroke: #383838; stroke-width: 1.0;"/></g></svg>