<?xml version="1.0" encoding="UTF-8" standalone="no"?><svg xmlns="http://www.w3.org/2000/svg" xmlns:xlink="http://www.w3.org/1999/xlink" contentScriptType="application/ecmascript" contentStyleType="text/css" height="568px" preserveAspectRatio="none" style="width:700px;height:568px;" version="1.1" viewBox="0 0 700 568" width="700px" zoomAndPan="magnify"><defs><filter height="300%" id="fjyvb88" width="300%" x="-1" y="-1"><feGaussianBlur result="blurOut" stdDeviation="2.0"/><feColorMatrix in="blurOut" result="blurOut2" type="matrix" values="0 0 0 0 0 0 0 0 0 0 0 0 0 0 0 0 0 0 .4 0"/><feOffset dx="4.0" dy="4.0" in="blurOut2" result="blurOut3"/><feBlend in="SourceGraphic" in2="blurOut3" mode="normal"/></filter></defs><g><text fill="#000000" font-family="sans-serif" font-size="18" lengthAdjust="spacingAndGlyphs" textLength="247" x="240" y="17.4023">PSSM Temp Staff Fullfilment</text><text fill="#000000" font-family="sans-serif" font-size="18" lengthAdjust="spacingAndGlyphs" textLength="216" x="255.5" y="38.6016">Communication Diagram</text><text fill="#000000" font-family="sans-serif" font-size="18" lengthAdjust="spacingAndGlyphs" textLength="0" x="366.5" y="59.8008"/><!--cluster Normal Case\nClient Demand, Placement, Fulfillment\n--><rect fill="#FFFFFF" filter="url(#fjyvb88)" height="474" style="stroke: #000000; stroke-width: 2.0;" width="671" x="22" y="87.5977"/><text fill="#000000" font-family="sans-serif" font-size="14" font-weight="bold" lengthAdjust="spacingAndGlyphs" textLength="92" x="311.5" y="103.1328">Normal Case</text><text fill="#000000" font-family="sans-serif" font-size="14" font-weight="bold" lengthAdjust="spacingAndGlyphs" textLength="277" x="219" y="119.6211">Client Demand, Placement, Fulfillment</text><text fill="#000000" font-family="sans-serif" font-size="14" font-weight="bold" lengthAdjust="spacingAndGlyphs" textLength="0" x="360" y="136.1094"/><!--entity C--><ellipse cx="58" cy="287.0977" fill="#F8F8F8" filter="url(#fjyvb88)" rx="8" ry="8" style="stroke: #383838; stroke-width: 2.0;"/><path d="M58,295.0977 L58,322.0977 M45,303.0977 L71,303.0977 M58,322.0977 L45,337.0977 M58,322.0977 L71,337.0977 " fill="#F8F8F8" filter="url(#fjyvb88)" style="stroke: #383838; stroke-width: 2.0;"/><text fill="#000000" font-family="sans-serif" font-size="14" lengthAdjust="spacingAndGlyphs" textLength="40" x="38" y="357.6328">Client</text><!--entity CM--><ellipse cx="345" cy="278.5977" fill="#F8F8F8" filter="url(#fjyvb88)" rx="8" ry="8" style="stroke: #383838; stroke-width: 2.0;"/><path d="M345,286.5977 L345,313.5977 M332,294.5977 L358,294.5977 M345,313.5977 L332,328.5977 M345,313.5977 L358,328.5977 " fill="#F8F8F8" filter="url(#fjyvb88)" style="stroke: #383838; stroke-width: 2.0;"/><text fill="#000000" font-family="sans-serif" font-size="14" lengthAdjust="spacingAndGlyphs" textLength="59" x="315.5" y="349.1328">Contract</text><text fill="#000000" font-family="sans-serif" font-size="14" lengthAdjust="spacingAndGlyphs" textLength="60" x="315" y="365.6211">Manager</text><!--entity TE--><ellipse cx="128" cy="455.5977" fill="#F8F8F8" filter="url(#fjyvb88)" rx="8" ry="8" style="stroke: #383838; stroke-width: 2.0;"/><path d="M128,463.5977 L128,490.5977 M115,471.5977 L141,471.5977 M128,490.5977 L115,505.5977 M128,490.5977 L141,505.5977 " fill="#F8F8F8" filter="url(#fjyvb88)" style="stroke: #383838; stroke-width: 2.0;"/><text fill="#000000" font-family="sans-serif" font-size="14" lengthAdjust="spacingAndGlyphs" textLength="39" x="108.5" y="526.1328">Temp</text><text fill="#000000" font-family="sans-serif" font-size="14" lengthAdjust="spacingAndGlyphs" textLength="66" x="95" y="542.6211">Employee</text><!--entity PE--><ellipse cx="376" cy="455.5977" fill="#F8F8F8" filter="url(#fjyvb88)" rx="8" ry="8" style="stroke: #383838; stroke-width: 2.0;"/><path d="M376,463.5977 L376,490.5977 M363,471.5977 L389,471.5977 M376,490.5977 L363,505.5977 M376,490.5977 L389,505.5977 " fill="#F8F8F8" filter="url(#fjyvb88)" style="stroke: #383838; stroke-width: 2.0;"/><text fill="#000000" font-family="sans-serif" font-size="14" lengthAdjust="spacingAndGlyphs" textLength="36" x="358" y="526.1328">PSSM</text><text fill="#000000" font-family="sans-serif" font-size="14" lengthAdjust="spacingAndGlyphs" textLength="66" x="343" y="542.6211">Employee</text><!--entity CO--><rect fill="#F8F8F8" filter="url(#fjyvb88)" height="36.4883" style="stroke: #000000; stroke-width: 1.5;" width="83" x="303.5" y="155.5977"/><text fill="#000000" font-family="sans-serif" font-size="14" lengthAdjust="spacingAndGlyphs" textLength="63" x="313.5" y="179.1328">:Contract</text><!--entity SR--><rect fill="#F8F8F8" filter="url(#fjyvb88)" height="52.9766" style="stroke: #000000; stroke-width: 1.5;" width="77" x="599.5" y="292.0977"/><text fill="#000000" font-family="sans-serif" font-size="14" lengthAdjust="spacingAndGlyphs" textLength="57" x="609.5" y="315.6328">:Staffing</text><text fill="#000000" font-family="sans-serif" font-size="14" lengthAdjust="spacingAndGlyphs" textLength="55" x="610.5" y="332.1211">Request</text><!--entity TEC--><rect fill="#F8F8F8" filter="url(#fjyvb88)" height="52.9766" style="stroke: #000000; stroke-width: 1.5;" width="86" x="591" y="469.0977"/><text fill="#000000" font-family="sans-serif" font-size="14" lengthAdjust="spacingAndGlyphs" textLength="43" x="612.5" y="492.6328">:Temp</text><text fill="#000000" font-family="sans-serif" font-size="14" lengthAdjust="spacingAndGlyphs" textLength="66" x="601" y="509.1211">Employee</text><path d="M78.0486,326.0887 C91.5307,330.7167 109.821,336.2127 126.5,338.5977 C157.298,343.0017 235.631,342.4687 266.5,338.5977 C280.917,336.7897 296.482,333.1837 309.921,329.5257 " fill="none" style="stroke: #383838; stroke-width: 1.0;"/><polygon fill="#383838" points="314.77,328.1787,305.0277,326.7335,309.9524,329.5169,307.169,334.4416,314.77,328.1787" style="stroke: #383838; stroke-width: 1.0;"/><text fill="#000000" font-family="sans-serif" font-size="13" lengthAdjust="spacingAndGlyphs" textLength="138" x="127.5" y="335.166">1. Request Temp Staff</text><path d="M83.3798,318.5977 C136.254,318.5977 257.999,318.5977 314.796,318.5977 " fill="none" style="stroke: #383838; stroke-width: 1.0;"/><polygon fill="#383838" points="78.1813,318.5977,87.1813,322.5977,83.1813,318.5977,87.1813,314.5977,78.1813,318.5977" style="stroke: #383838; stroke-width: 1.0;"/><text fill="#000000" font-family="sans-serif" font-size="13" lengthAdjust="spacingAndGlyphs" textLength="200" x="96.5" y="312.166">11. Notify Client, Request Filled</text><path d="M345,196.9717 C345,216.0257 345,244.0927 345,268.3587 " fill="none" style="stroke: #383838; stroke-width: 1.0;"/><polygon fill="#383838" points="345,191.8467,341,200.8467,345,196.8467,349,200.8467,345,191.8467" style="stroke: #383838; stroke-width: 1.0;"/><text fill="#000000" font-family="sans-serif" font-size="13" lengthAdjust="spacingAndGlyphs" textLength="127" x="346" y="235.166">2. validateContract()</text><path d="M375.253,318.5977 C427.199,318.5977 533.566,318.5977 593.817,318.5977 " fill="none" style="stroke: #383838; stroke-width: 1.0;"/><polygon fill="#383838" points="599.144,318.5977,590.144,314.5977,594.144,318.5977,590.144,322.5977,599.144,318.5977" style="stroke: #383838; stroke-width: 1.0;"/><text fill="#000000" font-family="sans-serif" font-size="13" lengthAdjust="spacingAndGlyphs" textLength="188" x="393.25" y="312.166">3. createNewStaffingRequest()</text><path d="M375.267,330.9227 C384.423,334.0727 394.608,337.0147 404.25,338.5977 C440.651,344.5757 533.74,343.8737 570.25,338.5977 C578.191,337.4497 586.498,335.5827 594.465,333.4387 " fill="none" style="stroke: #383838; stroke-width: 1.0;"/><polygon fill="#383838" points="599.375,332.0717,589.6318,330.6326,594.5583,333.413,591.7779,338.3394,599.375,332.0717" style="stroke: #383838; stroke-width: 1.0;"/><text fill="#000000" font-family="sans-serif" font-size="13" lengthAdjust="spacingAndGlyphs" textLength="164" x="405.25" y="335.166">10. closeStaffingRequest()</text><path d="M595.316,348.1077 C543.253,382.8827 456.358,440.9237 409.086,472.4987 " fill="none" style="stroke: #383838; stroke-width: 1.0;"/><polygon fill="#383838" points="599.622,345.2317,589.9163,346.905,595.4644,348.0091,594.3603,353.5572,599.622,345.2317" style="stroke: #383838; stroke-width: 1.0;"/><text fill="#000000" font-family="sans-serif" font-size="13" lengthAdjust="spacingAndGlyphs" textLength="166" x="515" y="412.166">8. updateStaffingRequest()</text><path d="M409.201,495.5977 C453.937,495.5977 533.889,495.5977 585.399,495.5977 " fill="none" style="stroke: #383838; stroke-width: 1.0;"/><polygon fill="#383838" points="590.603,495.5977,581.603,491.5977,585.603,495.5977,581.603,499.5977,590.603,495.5977" style="stroke: #383838; stroke-width: 1.0;"/><text fill="#000000" font-family="sans-serif" font-size="13" lengthAdjust="spacingAndGlyphs" textLength="117" x="441.5" y="459.166">9. placeEmployee()</text><text fill="#000000" font-family="sans-serif" font-size="13" lengthAdjust="spacingAndGlyphs" textLength="129" x="443.5" y="474.4766">5. reserveEmployee()</text><text fill="#000000" font-family="sans-serif" font-size="13" lengthAdjust="spacingAndGlyphs" textLength="114" x="451" y="489.7871">4. getCandidates()</text><path d="M166.328,495.5977 C214.61,495.5977 296.788,495.5977 342.611,495.5977 " fill="none" style="stroke: #383838; stroke-width: 1.0;"/><polygon fill="#383838" points="161.189,495.5977,170.189,499.5977,166.189,495.5977,170.189,491.5977,161.189,495.5977" style="stroke: #383838; stroke-width: 1.0;"/><text fill="#000000" font-family="sans-serif" font-size="13" lengthAdjust="spacingAndGlyphs" textLength="145" x="179.5" y="489.166">6. Negotiate Placement</text><path d="M161.21,508.963 C169.5,511.7091 178.463,514.1901 187,515.5977 C215.504,520.2975 288.496,520.2975 317,515.5977 C323.803,514.476 330.877,512.6727 337.664,510.5968 " fill="none" style="stroke: #383838; stroke-width: 1.0;"/><polygon fill="#383838" points="342.79,508.963,333.0003,507.8853,338.0262,510.4815,335.43,515.5074,342.79,508.963" style="stroke: #383838; stroke-width: 1.0;"/><text fill="#000000" font-family="sans-serif" font-size="13" lengthAdjust="spacingAndGlyphs" textLength="128" x="188" y="512.166">7. Placement Agreed</text></g></svg>