<?xml version="1.0" encoding="UTF-8" standalone="no"?><svg xmlns="http://www.w3.org/2000/svg" xmlns:xlink="http://www.w3.org/1999/xlink" contentScriptType="application/ecmascript" contentStyleType="text/css" height="1367px" preserveAspectRatio="none" style="width:995px;height:1367px;" version="1.1" viewBox="0 0 995 1367" width="995px" zoomAndPan="magnify"><defs><filter height="300%" id="f7uixkt" width="300%" x="-1" y="-1"><feGaussianBlur result="blurOut" stdDeviation="2.0"/><feColorMatrix in="blurOut" result="blurOut2" type="matrix" values="0 0 0 0 0 0 0 0 0 0 0 0 0 0 0 0 0 0 .4 0"/><feOffset dx="4.0" dy="4.0" in="blurOut2" result="blurOut3"/><feBlend in="SourceGraphic" in2="blurOut3" mode="normal"/></filter></defs><g><text fill="#000000" font-family="sans-serif" font-size="14" font-weight="bold" lengthAdjust="spacingAndGlyphs" textLength="245" x="377" y="23.5352">PSSM Temporary Staff Fullfilment</text><text fill="#000000" font-family="sans-serif" font-size="14" font-weight="bold" lengthAdjust="spacingAndGlyphs" textLength="132" x="433.5" y="40.0234">Sequence Diagram</text><text fill="#000000" font-family="sans-serif" font-size="14" font-weight="bold" lengthAdjust="spacingAndGlyphs" textLength="0" x="502" y="56.5117"/><rect fill="#FFFFFF" filter="url(#f7uixkt)" height="224.4844" style="stroke: #000000; stroke-width: 2.0;" width="869" x="13" y="183.4414"/><rect fill="#FFFFFF" filter="url(#f7uixkt)" height="75.9316" style="stroke: #000000; stroke-width: 2.0;" width="774" x="23" y="266.373"/><rect fill="#FFFFFF" filter="url(#f7uixkt)" height="649.832" style="stroke: #000000; stroke-width: 2.0;" width="973" x="13" y="421.9258"/><rect fill="#FFFFFF" filter="url(#f7uixkt)" height="176.8633" style="stroke: #000000; stroke-width: 2.0;" width="717" x="259" y="534.168"/><rect fill="#FFFFFF" filter="url(#f7uixkt)" height="134.5527" style="stroke: #000000; stroke-width: 2.0;" width="774" x="23" y="842.2734"/><rect fill="#FFFFFF" filter="url(#f7uixkt)" height="163.8633" style="stroke: #000000; stroke-width: 2.0;" width="953" x="23" y="1085.7578"/><line style="stroke: #383838; stroke-width: 1.0; stroke-dasharray: 5.0,5.0;" x1="56" x2="56" y1="166.4414" y2="1266.6211"/><line style="stroke: #383838; stroke-width: 1.0; stroke-dasharray: 5.0,5.0;" x1="302" x2="302" y1="166.4414" y2="1266.6211"/><line style="stroke: #383838; stroke-width: 1.0; stroke-dasharray: 5.0,5.0;" x1="385" x2="385" y1="166.4414" y2="1266.6211"/><line style="stroke: #383838; stroke-width: 1.0; stroke-dasharray: 5.0,5.0;" x1="548.5" x2="548.5" y1="166.4414" y2="1266.6211"/><line style="stroke: #383838; stroke-width: 1.0; stroke-dasharray: 5.0,5.0;" x1="746" x2="746" y1="166.4414" y2="1266.6211"/><line style="stroke: #383838; stroke-width: 1.0; stroke-dasharray: 5.0,5.0;" x1="834" x2="834" y1="166.4414" y2="1266.6211"/><line style="stroke: #383838; stroke-width: 1.0; stroke-dasharray: 5.0,5.0;" x1="924" x2="924" y1="166.4414" y2="1266.6211"/><text fill="#000000" font-family="sans-serif" font-size="14" lengthAdjust="spacingAndGlyphs" textLength="40" x="33" y="163.4883">Client</text><ellipse cx="56" cy="92.9531" fill="#F8F8F8" filter="url(#f7uixkt)" rx="8" ry="8" style="stroke: #383838; stroke-width: 2.0;"/><path d="M56,100.9531 L56,127.9531 M43,108.9531 L69,108.9531 M56,127.9531 L43,142.9531 M56,127.9531 L69,142.9531 " fill="#F8F8F8" filter="url(#f7uixkt)" style="stroke: #383838; stroke-width: 2.0;"/><text fill="#000000" font-family="sans-serif" font-size="14" lengthAdjust="spacingAndGlyphs" textLength="40" x="33" y="1279.1563">Client</text><ellipse cx="56" cy="1292.1094" fill="#F8F8F8" filter="url(#f7uixkt)" rx="8" ry="8" style="stroke: #383838; stroke-width: 2.0;"/><path d="M56,1300.1094 L56,1327.1094 M43,1308.1094 L69,1308.1094 M56,1327.1094 L43,1342.1094 M56,1327.1094 L69,1342.1094 " fill="#F8F8F8" filter="url(#f7uixkt)" style="stroke: #383838; stroke-width: 2.0;"/><text fill="#000000" font-family="sans-serif" font-size="14" lengthAdjust="spacingAndGlyphs" textLength="59" x="269.5" y="147">Contract</text><text fill="#000000" font-family="sans-serif" font-size="14" lengthAdjust="spacingAndGlyphs" textLength="60" x="269" y="163.4883">Manager</text><ellipse cx="302" cy="76.4648" fill="#F8F8F8" filter="url(#f7uixkt)" rx="8" ry="8" style="stroke: #383838; stroke-width: 2.0;"/><path d="M302,84.4648 L302,111.4648 M289,92.4648 L315,92.4648 M302,111.4648 L289,126.4648 M302,111.4648 L315,126.4648 " fill="#F8F8F8" filter="url(#f7uixkt)" style="stroke: #383838; stroke-width: 2.0;"/><text fill="#000000" font-family="sans-serif" font-size="14" lengthAdjust="spacingAndGlyphs" textLength="59" x="269.5" y="1279.1563">Contract</text><text fill="#000000" font-family="sans-serif" font-size="14" lengthAdjust="spacingAndGlyphs" textLength="60" x="269" y="1295.6445">Manager</text><ellipse cx="302" cy="1308.5977" fill="#F8F8F8" filter="url(#f7uixkt)" rx="8" ry="8" style="stroke: #383838; stroke-width: 2.0;"/><path d="M302,1316.5977 L302,1343.5977 M289,1324.5977 L315,1324.5977 M302,1343.5977 L289,1358.5977 M302,1343.5977 L315,1358.5977 " fill="#F8F8F8" filter="url(#f7uixkt)" style="stroke: #383838; stroke-width: 2.0;"/><text fill="#000000" font-family="sans-serif" font-size="14" lengthAdjust="spacingAndGlyphs" textLength="75" x="345" y="147">Temporary</text><text fill="#000000" font-family="sans-serif" font-size="14" lengthAdjust="spacingAndGlyphs" textLength="66" x="349.5" y="163.4883">Employee</text><ellipse cx="385.5" cy="76.4648" fill="#F8F8F8" filter="url(#f7uixkt)" rx="8" ry="8" style="stroke: #383838; stroke-width: 2.0;"/><path d="M385.5,84.4648 L385.5,111.4648 M372.5,92.4648 L398.5,92.4648 M385.5,111.4648 L372.5,126.4648 M385.5,111.4648 L398.5,126.4648 " fill="#F8F8F8" filter="url(#f7uixkt)" style="stroke: #383838; stroke-width: 2.0;"/><text fill="#000000" font-family="sans-serif" font-size="14" lengthAdjust="spacingAndGlyphs" textLength="75" x="345" y="1279.1563">Temporary</text><text fill="#000000" font-family="sans-serif" font-size="14" lengthAdjust="spacingAndGlyphs" textLength="66" x="349.5" y="1295.6445">Employee</text><ellipse cx="385.5" cy="1308.5977" fill="#F8F8F8" filter="url(#f7uixkt)" rx="8" ry="8" style="stroke: #383838; stroke-width: 2.0;"/><path d="M385.5,1316.5977 L385.5,1343.5977 M372.5,1324.5977 L398.5,1324.5977 M385.5,1343.5977 L372.5,1358.5977 M385.5,1343.5977 L398.5,1358.5977 " fill="#F8F8F8" filter="url(#f7uixkt)" style="stroke: #383838; stroke-width: 2.0;"/><text fill="#000000" font-family="sans-serif" font-size="14" lengthAdjust="spacingAndGlyphs" textLength="36" x="527.5" y="147">PSSM</text><text fill="#000000" font-family="sans-serif" font-size="14" lengthAdjust="spacingAndGlyphs" textLength="66" x="512.5" y="163.4883">Employee</text><ellipse cx="548.5" cy="76.4648" fill="#F8F8F8" filter="url(#f7uixkt)" rx="8" ry="8" style="stroke: #383838; stroke-width: 2.0;"/><path d="M548.5,84.4648 L548.5,111.4648 M535.5,92.4648 L561.5,92.4648 M548.5,111.4648 L535.5,126.4648 M548.5,111.4648 L561.5,126.4648 " fill="#F8F8F8" filter="url(#f7uixkt)" style="stroke: #383838; stroke-width: 2.0;"/><text fill="#000000" font-family="sans-serif" font-size="14" lengthAdjust="spacingAndGlyphs" textLength="36" x="527.5" y="1279.1563">PSSM</text><text fill="#000000" font-family="sans-serif" font-size="14" lengthAdjust="spacingAndGlyphs" textLength="66" x="512.5" y="1295.6445">Employee</text><ellipse cx="548.5" cy="1308.5977" fill="#F8F8F8" filter="url(#f7uixkt)" rx="8" ry="8" style="stroke: #383838; stroke-width: 2.0;"/><path d="M548.5,1316.5977 L548.5,1343.5977 M535.5,1324.5977 L561.5,1324.5977 M548.5,1343.5977 L535.5,1358.5977 M548.5,1343.5977 L561.5,1358.5977 " fill="#F8F8F8" filter="url(#f7uixkt)" style="stroke: #383838; stroke-width: 2.0;"/><rect fill="#F8F8F8" filter="url(#f7uixkt)" height="30.4883" style="stroke: #383838; stroke-width: 1.5;" width="77" x="706" y="130.9531"/><text fill="#000000" font-family="sans-serif" font-size="14" lengthAdjust="spacingAndGlyphs" textLength="63" x="713" y="151.4883">:Contract</text><rect fill="#F8F8F8" filter="url(#f7uixkt)" height="30.4883" style="stroke: #383838; stroke-width: 1.5;" width="77" x="706" y="1265.6211"/><text fill="#000000" font-family="sans-serif" font-size="14" lengthAdjust="spacingAndGlyphs" textLength="63" x="713" y="1286.1563">:Contract</text><rect fill="#F8F8F8" filter="url(#f7uixkt)" height="46.9766" style="stroke: #383838; stroke-width: 1.5;" width="71" x="797" y="114.4648"/><text fill="#000000" font-family="sans-serif" font-size="14" lengthAdjust="spacingAndGlyphs" textLength="57" x="804" y="135">:Staffing</text><text fill="#000000" font-family="sans-serif" font-size="14" lengthAdjust="spacingAndGlyphs" textLength="55" x="805" y="151.4883">Request</text><rect fill="#F8F8F8" filter="url(#f7uixkt)" height="46.9766" style="stroke: #383838; stroke-width: 1.5;" width="71" x="797" y="1265.6211"/><text fill="#000000" font-family="sans-serif" font-size="14" lengthAdjust="spacingAndGlyphs" textLength="57" x="804" y="1286.1563">:Staffing</text><text fill="#000000" font-family="sans-serif" font-size="14" lengthAdjust="spacingAndGlyphs" textLength="55" x="805" y="1302.6445">Request</text><rect fill="#F8F8F8" filter="url(#f7uixkt)" height="46.9766" style="stroke: #383838; stroke-width: 1.5;" width="80" x="882" y="114.4648"/><text fill="#000000" font-family="sans-serif" font-size="14" lengthAdjust="spacingAndGlyphs" textLength="43" x="900.5" y="135">:Temp</text><text fill="#000000" font-family="sans-serif" font-size="14" lengthAdjust="spacingAndGlyphs" textLength="66" x="889" y="151.4883">Employee</text><rect fill="#F8F8F8" filter="url(#f7uixkt)" height="46.9766" style="stroke: #383838; stroke-width: 1.5;" width="80" x="882" y="1265.6211"/><text fill="#000000" font-family="sans-serif" font-size="14" lengthAdjust="spacingAndGlyphs" textLength="43" x="900.5" y="1286.1563">:Temp</text><text fill="#000000" font-family="sans-serif" font-size="14" lengthAdjust="spacingAndGlyphs" textLength="66" x="889" y="1302.6445">Employee</text><rect fill="none" height="224.4844" style="stroke: #000000; stroke-width: 2.0;" width="869" x="13" y="183.4414"/><polygon fill="#EEEEEE" points="13,183.4414,158,183.4414,158,190.4414,148,200.4414,13,200.4414,13,183.4414" style="stroke: #000000; stroke-width: 2.0;"/><text fill="#000000" font-family="sans-serif" font-size="13" font-weight="bold" lengthAdjust="spacingAndGlyphs" textLength="100" x="28" y="197.0098">Client Demand</text><polygon fill="#383838" points="290,217.752,300,221.752,290,225.752,294,221.752" style="stroke: #383838; stroke-width: 1.0;"/><line style="stroke: #383838; stroke-width: 1.0;" x1="56" x2="296" y1="221.752" y2="221.752"/><text fill="#000000" font-family="sans-serif" font-size="13" lengthAdjust="spacingAndGlyphs" textLength="122" x="63" y="217.3203">Request Temp Staff</text><polygon fill="#383838" points="734.5,247.0625,744.5,251.0625,734.5,255.0625,738.5,251.0625" style="stroke: #383838; stroke-width: 1.0;"/><line style="stroke: #383838; stroke-width: 1.0;" x1="302" x2="740.5" y1="251.0625" y2="251.0625"/><text fill="#000000" font-family="sans-serif" font-size="13" lengthAdjust="spacingAndGlyphs" textLength="111" x="309" y="246.6309">validateContract()</text><rect fill="none" height="75.9316" style="stroke: #000000; stroke-width: 2.0;" width="774" x="23" y="266.373"/><polygon fill="#EEEEEE" points="23,266.373,225,266.373,225,273.373,215,283.373,23,283.373,23,266.373" style="stroke: #000000; stroke-width: 2.0;"/><text fill="#000000" font-family="sans-serif" font-size="13" font-weight="bold" lengthAdjust="spacingAndGlyphs" textLength="157" x="38" y="279.9414">Invalid StaffingRequest</text><polygon fill="#383838" points="313,300.6836,303,304.6836,313,308.6836,309,304.6836" style="stroke: #383838; stroke-width: 1.0;"/><line style="stroke: #383838; stroke-width: 1.0; stroke-dasharray: 2.0,2.0;" x1="307" x2="745.5" y1="304.6836" y2="304.6836"/><text fill="#000000" font-family="sans-serif" font-size="13" lengthAdjust="spacingAndGlyphs" textLength="100" x="319" y="300.252">Invalid Contract</text><polygon fill="#383838" points="67,329.9941,57,333.9941,67,337.9941,63,333.9941" style="stroke: #383838; stroke-width: 1.0;"/><line style="stroke: #383838; stroke-width: 1.0; stroke-dasharray: 2.0,2.0;" x1="61" x2="301" y1="333.9941" y2="333.9941"/><text fill="#000000" font-family="sans-serif" font-size="13" lengthAdjust="spacingAndGlyphs" textLength="172" x="73" y="329.5625">"unable-to-fill", Why Letter</text><polygon fill="#383838" points="313,366.3047,303,370.3047,313,374.3047,309,370.3047" style="stroke: #383838; stroke-width: 1.0;"/><line style="stroke: #383838; stroke-width: 1.0; stroke-dasharray: 2.0,2.0;" x1="307" x2="745.5" y1="370.3047" y2="370.3047"/><text fill="#000000" font-family="sans-serif" font-size="13" lengthAdjust="spacingAndGlyphs" textLength="89" x="319" y="365.873">Valid Contract</text><polygon fill="#383838" points="822.5,395.6152,832.5,399.6152,822.5,403.6152,826.5,399.6152" style="stroke: #383838; stroke-width: 1.0;"/><line style="stroke: #383838; stroke-width: 1.0;" x1="302" x2="828.5" y1="399.6152" y2="399.6152"/><text fill="#000000" font-family="sans-serif" font-size="13" lengthAdjust="spacingAndGlyphs" textLength="172" x="309" y="395.1836">createNewStaffingRequest()</text><rect fill="none" height="649.832" style="stroke: #000000; stroke-width: 2.0;" width="973" x="13" y="421.9258"/><polygon fill="#EEEEEE" points="13,421.9258,128,421.9258,128,428.9258,118,438.9258,13,438.9258,13,421.9258" style="stroke: #000000; stroke-width: 2.0;"/><text fill="#000000" font-family="sans-serif" font-size="13" font-weight="bold" lengthAdjust="spacingAndGlyphs" textLength="70" x="28" y="435.4941">Placement</text><polygon fill="#383838" points="822.5,456.2363,832.5,460.2363,822.5,464.2363,826.5,460.2363" style="stroke: #383838; stroke-width: 1.0;"/><line style="stroke: #383838; stroke-width: 1.0;" x1="548.5" x2="828.5" y1="460.2363" y2="460.2363"/><text fill="#000000" font-family="sans-serif" font-size="13" lengthAdjust="spacingAndGlyphs" textLength="127" x="555.5" y="455.8047">getStaffingRequest()</text><polygon fill="#383838" points="559.5,485.5469,549.5,489.5469,559.5,493.5469,555.5,489.5469" style="stroke: #383838; stroke-width: 1.0;"/><line style="stroke: #383838; stroke-width: 1.0; stroke-dasharray: 2.0,2.0;" x1="553.5" x2="833.5" y1="489.5469" y2="489.5469"/><text fill="#000000" font-family="sans-serif" font-size="13" lengthAdjust="spacingAndGlyphs" textLength="99" x="565.5" y="485.1152">StaffingRequest</text><polygon fill="#383838" points="912,514.8574,922,518.8574,912,522.8574,916,518.8574" style="stroke: #383838; stroke-width: 1.0;"/><line style="stroke: #383838; stroke-width: 1.0;" x1="548.5" x2="918" y1="518.8574" y2="518.8574"/><text fill="#000000" font-family="sans-serif" font-size="13" lengthAdjust="spacingAndGlyphs" textLength="197" x="555.5" y="514.4258">getCandidates(StaffingRequest)</text><rect fill="none" height="176.8633" style="stroke: #000000; stroke-width: 2.0;" width="717" x="259" y="534.168"/><polygon fill="#EEEEEE" points="259,534.168,507,534.168,507,541.168,497,551.168,259,551.168,259,534.168" style="stroke: #000000; stroke-width: 2.0;"/><text fill="#000000" font-family="sans-serif" font-size="13" font-weight="bold" lengthAdjust="spacingAndGlyphs" textLength="203" x="274" y="547.7363">No Qualified Candidate Found</text><polygon fill="#383838" points="559.5,568.4785,549.5,572.4785,559.5,576.4785,555.5,572.4785" style="stroke: #383838; stroke-width: 1.0;"/><line style="stroke: #383838; stroke-width: 1.0;" x1="553.5" x2="923" y1="572.4785" y2="572.4785"/><text fill="#000000" font-family="sans-serif" font-size="13" lengthAdjust="spacingAndGlyphs" textLength="128" x="565.5" y="568.0469">No Candidate Found</text><line style="stroke: #383838; stroke-width: 1.0;" x1="548.5" x2="590.5" y1="602.0996" y2="602.0996"/><line style="stroke: #383838; stroke-width: 1.0;" x1="590.5" x2="590.5" y1="602.0996" y2="615.0996"/><line style="stroke: #383838; stroke-width: 1.0;" x1="549.5" x2="590.5" y1="615.0996" y2="615.0996"/><polygon fill="#383838" points="559.5,611.0996,549.5,615.0996,559.5,619.0996,555.5,615.0996" style="stroke: #383838; stroke-width: 1.0;"/><text fill="#000000" font-family="sans-serif" font-size="13" lengthAdjust="spacingAndGlyphs" textLength="184" x="555.5" y="597.3574">Create "unable-to-fill" Memo</text><polygon fill="#383838" points="822.5,640.0996,832.5,644.0996,822.5,648.0996,826.5,644.0996" style="stroke: #383838; stroke-width: 1.0;"/><line style="stroke: #383838; stroke-width: 1.0;" x1="548.5" x2="828.5" y1="644.0996" y2="644.0996"/><text fill="#000000" font-family="sans-serif" font-size="13" lengthAdjust="spacingAndGlyphs" textLength="85" x="555.5" y="639.668">attachMemo()</text><polygon fill="#383838" points="313,669.4102,303,673.4102,313,677.4102,309,673.4102" style="stroke: #383838; stroke-width: 1.0;"/><line style="stroke: #383838; stroke-width: 1.0; stroke-dasharray: 2.0,2.0;" x1="307" x2="833.5" y1="673.4102" y2="673.4102"/><text fill="#000000" font-family="sans-serif" font-size="13" lengthAdjust="spacingAndGlyphs" textLength="188" x="319" y="668.9785">Contract Manager notification</text><polygon fill="#383838" points="734.5,698.7207,744.5,702.7207,734.5,706.7207,738.5,702.7207" style="stroke: #383838; stroke-width: 1.0;"/><line style="stroke: #383838; stroke-width: 1.0;" x1="302" x2="740.5" y1="702.7207" y2="702.7207"/><text fill="#000000" font-family="sans-serif" font-size="13" lengthAdjust="spacingAndGlyphs" textLength="140" x="309" y="698.2891">closeStaffingRequest()</text><polygon fill="#383838" points="559.5,735.0313,549.5,739.0313,559.5,743.0313,555.5,739.0313" style="stroke: #383838; stroke-width: 1.0;"/><line style="stroke: #383838; stroke-width: 1.0; stroke-dasharray: 2.0,2.0;" x1="553.5" x2="923" y1="739.0313" y2="739.0313"/><text fill="#000000" font-family="sans-serif" font-size="13" lengthAdjust="spacingAndGlyphs" textLength="121" x="565.5" y="734.5996">Display Candidates</text><polygon fill="#383838" points="912,764.3418,922,768.3418,912,772.3418,916,768.3418" style="stroke: #383838; stroke-width: 1.0;"/><line style="stroke: #383838; stroke-width: 1.0;" x1="548.5" x2="918" y1="768.3418" y2="768.3418"/><text fill="#000000" font-family="sans-serif" font-size="13" lengthAdjust="spacingAndGlyphs" textLength="212" x="555.5" y="763.9102">reserveEmployee(StaffingRequest)</text><polygon fill="#383838" points="559.5,793.6523,549.5,797.6523,559.5,801.6523,555.5,797.6523" style="stroke: #383838; stroke-width: 1.0;"/><line style="stroke: #383838; stroke-width: 1.0; stroke-dasharray: 2.0,2.0;" x1="553.5" x2="923" y1="797.6523" y2="797.6523"/><text fill="#000000" font-family="sans-serif" font-size="13" lengthAdjust="spacingAndGlyphs" textLength="120" x="565.5" y="793.2207">Employee Reserved</text><polygon fill="#383838" points="396.5,822.9629,386.5,826.9629,396.5,830.9629,392.5,826.9629" style="stroke: #383838; stroke-width: 1.0;"/><line style="stroke: #383838; stroke-width: 1.0;" x1="390.5" x2="547.5" y1="826.9629" y2="826.9629"/><text fill="#000000" font-family="sans-serif" font-size="13" lengthAdjust="spacingAndGlyphs" textLength="129" x="402.5" y="822.5313">Negotiate Placement</text><rect fill="none" height="134.5527" style="stroke: #000000; stroke-width: 2.0;" width="774" x="23" y="842.2734"/><polygon fill="#EEEEEE" points="23,842.2734,160,842.2734,160,849.2734,150,859.2734,23,859.2734,23,842.2734" style="stroke: #000000; stroke-width: 2.0;"/><text fill="#000000" font-family="sans-serif" font-size="13" font-weight="bold" lengthAdjust="spacingAndGlyphs" textLength="92" x="38" y="855.8418">No Placement</text><polygon fill="#383838" points="536.5,876.584,546.5,880.584,536.5,884.584,540.5,880.584" style="stroke: #383838; stroke-width: 1.0;"/><line style="stroke: #383838; stroke-width: 1.0; stroke-dasharray: 2.0,2.0;" x1="385.5" x2="542.5" y1="880.584" y2="880.584"/><text fill="#000000" font-family="sans-serif" font-size="13" lengthAdjust="spacingAndGlyphs" textLength="139" x="392.5" y="876.1523">Placement Not Agreed</text><polygon fill="#383838" points="734.5,905.8945,744.5,909.8945,734.5,913.8945,738.5,909.8945" style="stroke: #383838; stroke-width: 1.0;"/><line style="stroke: #383838; stroke-width: 1.0;" x1="548.5" x2="740.5" y1="909.8945" y2="909.8945"/><text fill="#000000" font-family="sans-serif" font-size="13" lengthAdjust="spacingAndGlyphs" textLength="172" x="555.5" y="905.4629">fileContract(SR, bill, memo)</text><polygon fill="#383838" points="313,935.2051,303,939.2051,313,943.2051,309,939.2051" style="stroke: #383838; stroke-width: 1.0;"/><line style="stroke: #383838; stroke-width: 1.0; stroke-dasharray: 2.0,2.0;" x1="307" x2="745.5" y1="939.2051" y2="939.2051"/><text fill="#000000" font-family="sans-serif" font-size="13" lengthAdjust="spacingAndGlyphs" textLength="188" x="319" y="934.7734">Contract Manager notification</text><polygon fill="#383838" points="67,964.5156,57,968.5156,67,972.5156,63,968.5156" style="stroke: #383838; stroke-width: 1.0;"/><line style="stroke: #383838; stroke-width: 1.0;" x1="61" x2="301" y1="968.5156" y2="968.5156"/><text fill="#000000" font-family="sans-serif" font-size="13" lengthAdjust="spacingAndGlyphs" textLength="222" x="73" y="964.084">Client Notification, "unable-to-fill"</text><polygon fill="#383838" points="536.5,1000.8262,546.5,1004.8262,536.5,1008.8262,540.5,1004.8262" style="stroke: #383838; stroke-width: 1.0;"/><line style="stroke: #383838; stroke-width: 1.0; stroke-dasharray: 2.0,2.0;" x1="385.5" x2="542.5" y1="1004.8262" y2="1004.8262"/><text fill="#000000" font-family="sans-serif" font-size="13" lengthAdjust="spacingAndGlyphs" textLength="112" x="392.5" y="1000.3945">Placement Agreed</text><polygon fill="#383838" points="822.5,1030.1367,832.5,1034.1367,822.5,1038.1367,826.5,1034.1367" style="stroke: #383838; stroke-width: 1.0;"/><line style="stroke: #383838; stroke-width: 1.0;" x1="548.5" x2="828.5" y1="1034.1367" y2="1034.1367"/><text fill="#000000" font-family="sans-serif" font-size="13" lengthAdjust="spacingAndGlyphs" textLength="245" x="555.5" y="1029.7051">updateStaffingRequest(TempEmployee)</text><polygon fill="#383838" points="559.5,1059.4473,549.5,1063.4473,559.5,1067.4473,555.5,1063.4473" style="stroke: #383838; stroke-width: 1.0;"/><line style="stroke: #383838; stroke-width: 1.0; stroke-dasharray: 2.0,2.0;" x1="553.5" x2="833.5" y1="1063.4473" y2="1063.4473"/><text fill="#000000" font-family="sans-serif" font-size="13" lengthAdjust="spacingAndGlyphs" textLength="155" x="565.5" y="1059.0156">StaffingRequest Updated</text><rect fill="none" height="163.8633" style="stroke: #000000; stroke-width: 2.0;" width="953" x="23" y="1085.7578"/><polygon fill="#EEEEEE" points="23,1085.7578,159,1085.7578,159,1092.7578,149,1102.7578,23,1102.7578,23,1085.7578" style="stroke: #000000; stroke-width: 2.0;"/><text fill="#000000" font-family="sans-serif" font-size="13" font-weight="bold" lengthAdjust="spacingAndGlyphs" textLength="91" x="38" y="1099.3262">Arrangement</text><polygon fill="#383838" points="912,1120.0684,922,1124.0684,912,1128.0684,916,1124.0684" style="stroke: #383838; stroke-width: 1.0;"/><line style="stroke: #383838; stroke-width: 1.0;" x1="548.5" x2="918" y1="1124.0684" y2="1124.0684"/><text fill="#000000" font-family="sans-serif" font-size="13" lengthAdjust="spacingAndGlyphs" textLength="200" x="555.5" y="1119.6367">placeEmployee(StaffingRequest)</text><polygon fill="#383838" points="559.5,1149.3789,549.5,1153.3789,559.5,1157.3789,555.5,1153.3789" style="stroke: #383838; stroke-width: 1.0;"/><line style="stroke: #383838; stroke-width: 1.0; stroke-dasharray: 2.0,2.0;" x1="553.5" x2="923" y1="1153.3789" y2="1153.3789"/><text fill="#000000" font-family="sans-serif" font-size="13" lengthAdjust="spacingAndGlyphs" textLength="104" x="565.5" y="1148.9473">Employee Placed</text><polygon fill="#383838" points="822.5,1178.6895,832.5,1182.6895,822.5,1186.6895,826.5,1182.6895" style="stroke: #383838; stroke-width: 1.0;"/><line style="stroke: #383838; stroke-width: 1.0;" x1="302" x2="828.5" y1="1182.6895" y2="1182.6895"/><text fill="#000000" font-family="sans-serif" font-size="13" lengthAdjust="spacingAndGlyphs" textLength="140" x="309" y="1178.2578">closeStaffingRequest()</text><polygon fill="#383838" points="313,1208,303,1212,313,1216,309,1212" style="stroke: #383838; stroke-width: 1.0;"/><line style="stroke: #383838; stroke-width: 1.0; stroke-dasharray: 2.0,2.0;" x1="307" x2="833.5" y1="1212" y2="1212"/><text fill="#000000" font-family="sans-serif" font-size="13" lengthAdjust="spacingAndGlyphs" textLength="141" x="319" y="1207.5684">Confirmation Message</text><polygon fill="#383838" points="67,1237.3105,57,1241.3105,67,1245.3105,63,1241.3105" style="stroke: #383838; stroke-width: 1.0;"/><line style="stroke: #383838; stroke-width: 1.0; stroke-dasharray: 2.0,2.0;" x1="61" x2="301" y1="1241.3105" y2="1241.3105"/><text fill="#000000" font-family="sans-serif" font-size="13" lengthAdjust="spacingAndGlyphs" textLength="176" x="73" y="1236.8789">Notify Client, Request Filled</text></g></svg>