<?xml version="1.0" encoding="UTF-8" standalone="yes"?><svg xmlns="http://www.w3.org/2000/svg" xmlns:xlink="http://www.w3.org/1999/xlink" height="1344px" style="width:492px;height:1344px;" version="1.1" viewBox="0 0 492 1344" width="492px"><defs><filter height="300%" id="f1" width="300%" x="-1" y="-1"><feGaussianBlur result="blurOut" stdDeviation="2.0"/><feColorMatrix in="blurOut" result="blurOut2" type="matrix" values="0 0 0 0 0 0 0 0 0 0 0 0 0 0 0 0 0 0 .4 0"/><feOffset dx="4.0" dy="4.0" in="blurOut2" result="blurOut3"/><feBlend in="SourceGraphic" in2="blurOut3" mode="normal"/></filter></defs><g><text fill="#000000" font-family="sans-serif" font-size="18" lengthAdjust="spacingAndGlyphs" textLength="227" x="146" y="17.4023">Professional and Scientific</text><text fill="#000000" font-family="sans-serif" font-size="18" lengthAdjust="spacingAndGlyphs" textLength="160" x="179.5" y="38.6016">Staff Management</text><text fill="#000000" font-family="sans-serif" font-size="18" lengthAdjust="spacingAndGlyphs" textLength="0" x="262.5" y="59.8008"/><polygon fill="#FFFFFF" filter="url(#f1)" points="22,87.5977,149,87.5977,156,110.0859,485,110.0859,485,1337.5977,22,1337.5977,22,87.5977" style="stroke: #000000; stroke-width: 2.0;"/><line style="stroke: #000000; stroke-width: 2.0;" x1="22" x2="156" y1="110.0859" y2="110.0859"/><text fill="#000000" font-family="sans-serif" font-size="14" font-weight="bold" lengthAdjust="spacingAndGlyphs" textLength="121" x="25" y="104.1328">Problem Domain</text><rect fill="#F8F8F8" filter="url(#f1)" height="73.9102" style="stroke: #383838; stroke-width: 1.5;" width="128" x="139" y="122.5977"/><ellipse cx="186.25" cy="138.5977" fill="#C2C2C2" rx="11" ry="11" style="stroke: #383838; stroke-width: 1.0;"/><path d="M189.2231,144.2407 Q188.6421,144.5396 188.0029,144.689 Q187.3638,144.8384 186.6582,144.8384 Q184.1514,144.8384 182.8315,143.1865 Q181.5117,141.5347 181.5117,138.4136 Q181.5117,135.2842 182.8315,133.6323 Q184.1514,131.9805 186.6582,131.9805 Q187.3638,131.9805 188.0112,132.1299 Q188.6587,132.2793 189.2231,132.5781 L189.2231,135.3008 Q188.5923,134.7197 187.9988,134.45 Q187.4053,134.1802 186.7744,134.1802 Q185.4297,134.1802 184.7449,135.2468 Q184.0601,136.3135 184.0601,138.4136 Q184.0601,140.5054 184.7449,141.572 Q185.4297,142.6387 186.7744,142.6387 Q187.4053,142.6387 187.9988,142.3689 Q188.5923,142.0991 189.2231,141.5181 Z "/><text fill="#000000" font-family="sans-serif" font-size="12" lengthAdjust="spacingAndGlyphs" textLength="25" x="206.75" y="143.1328">Role</text><line style="stroke: #383838; stroke-width: 1.5;" x1="140" x2="266" y1="154.5977" y2="154.5977"/><rect fill="none" height="6" style="stroke: #595959; stroke-width: 1.0;" width="6" x="147" y="163.5752"/><text fill="#000000" font-family="sans-serif" font-size="11" lengthAdjust="spacingAndGlyphs" textLength="33" x="159" y="169.2324">id : int</text><rect fill="none" height="6" style="stroke: #595959; stroke-width: 1.0;" width="6" x="147" y="176.5303"/><text fill="#000000" font-family="sans-serif" font-size="11" lengthAdjust="spacingAndGlyphs" textLength="102" x="159" y="182.1875">description : string</text><line style="stroke: #383838; stroke-width: 1.5;" x1="140" x2="266" y1="188.5078" y2="188.5078"/><rect fill="#F8F8F8" filter="url(#f1)" height="112.7754" style="stroke: #383838; stroke-width: 1.5;" width="110" x="148" y="319.5977"/><ellipse cx="186.4" cy="335.5977" fill="#C2C2C2" rx="11" ry="11" style="stroke: #383838; stroke-width: 1.0;"/><path d="M189.3731,341.2407 Q188.7921,341.5396 188.1529,341.689 Q187.5138,341.8384 186.8082,341.8384 Q184.3014,341.8384 182.9815,340.1865 Q181.6617,338.5347 181.6617,335.4136 Q181.6617,332.2842 182.9815,330.6323 Q184.3014,328.9805 186.8082,328.9805 Q187.5138,328.9805 188.1612,329.1299 Q188.8087,329.2793 189.3731,329.5781 L189.3731,332.3008 Q188.7423,331.7197 188.1488,331.45 Q187.5553,331.1802 186.9244,331.1802 Q185.5797,331.1802 184.8949,332.2468 Q184.2101,333.3135 184.2101,335.4136 Q184.2101,337.5054 184.8949,338.572 Q185.5797,339.6387 186.9244,339.6387 Q187.5553,339.6387 188.1488,339.3689 Q188.7423,339.0991 189.3731,338.5181 Z "/><text fill="#000000" font-family="sans-serif" font-size="12" lengthAdjust="spacingAndGlyphs" textLength="26" x="205.6" y="340.1328">User</text><line style="stroke: #383838; stroke-width: 1.5;" x1="149" x2="257" y1="351.5977" y2="351.5977"/><rect fill="none" height="6" style="stroke: #595959; stroke-width: 1.0;" width="6" x="156" y="360.5752"/><text fill="#000000" font-family="sans-serif" font-size="11" lengthAdjust="spacingAndGlyphs" textLength="33" x="168" y="366.2324">id : int</text><rect fill="none" height="6" style="stroke: #595959; stroke-width: 1.0;" width="6" x="156" y="373.5303"/><text fill="#000000" font-family="sans-serif" font-size="11" lengthAdjust="spacingAndGlyphs" textLength="70" x="168" y="379.1875">name : String</text><rect fill="none" height="6" style="stroke: #595959; stroke-width: 1.0;" width="6" x="156" y="386.4854"/><text fill="#000000" font-family="sans-serif" font-size="11" lengthAdjust="spacingAndGlyphs" textLength="84" x="168" y="392.1426">address : String</text><rect fill="none" height="6" style="stroke: #595959; stroke-width: 1.0;" width="6" x="156" y="399.4404"/><text fill="#000000" font-family="sans-serif" font-size="11" lengthAdjust="spacingAndGlyphs" textLength="75" x="168" y="405.0977">phone : String</text><rect fill="none" height="6" style="stroke: #595959; stroke-width: 1.0;" width="6" x="156" y="412.3955"/><text fill="#000000" font-family="sans-serif" font-size="11" lengthAdjust="spacingAndGlyphs" textLength="69" x="168" y="418.0527">email : String</text><line style="stroke: #383838; stroke-width: 1.5;" x1="149" x2="257" y1="424.373" y2="424.373"/><rect fill="#F8F8F8" filter="url(#f1)" height="112.7754" style="stroke: #383838; stroke-width: 1.5;" width="230" x="38" y="610.5977"/><ellipse cx="103.75" cy="626.5977" fill="#C2C2C2" rx="11" ry="11" style="stroke: #383838; stroke-width: 1.0;"/><path d="M106.7231,632.2407 Q106.1421,632.5396 105.5029,632.689 Q104.8638,632.8384 104.1582,632.8384 Q101.6514,632.8384 100.3315,631.1865 Q99.0117,629.5347 99.0117,626.4136 Q99.0117,623.2842 100.3315,621.6323 Q101.6514,619.9805 104.1582,619.9805 Q104.8638,619.9805 105.5112,620.1299 Q106.1587,620.2793 106.7231,620.5781 L106.7231,623.3008 Q106.0923,622.7197 105.4988,622.45 Q104.9053,622.1802 104.2744,622.1802 Q102.9297,622.1802 102.2449,623.2468 Q101.5601,624.3135 101.5601,626.4136 Q101.5601,628.5054 102.2449,629.572 Q102.9297,630.6387 104.2744,630.6387 Q104.9053,630.6387 105.4988,630.3689 Q106.0923,630.0991 106.7231,629.5181 Z "/><text fill="#000000" font-family="sans-serif" font-size="12" lengthAdjust="spacingAndGlyphs" textLength="90" x="124.25" y="631.1328">TempEmployee</text><line style="stroke: #383838; stroke-width: 1.5;" x1="39" x2="267" y1="642.5977" y2="642.5977"/><rect fill="none" height="6" style="stroke: #595959; stroke-width: 1.0;" width="6" x="46" y="651.5752"/><text fill="#000000" font-family="sans-serif" font-size="11" lengthAdjust="spacingAndGlyphs" textLength="134" x="58" y="657.2324">qualificationList : [String]</text><rect fill="none" height="6" style="stroke: #595959; stroke-width: 1.0;" width="6" x="46" y="664.5303"/><text fill="#000000" font-family="sans-serif" font-size="11" lengthAdjust="spacingAndGlyphs" textLength="111" x="58" y="670.1875">yearsExperience : int</text><rect fill="none" height="6" style="stroke: #595959; stroke-width: 1.0;" width="6" x="46" y="677.4854"/><text fill="#000000" font-family="sans-serif" font-size="11" lengthAdjust="spacingAndGlyphs" textLength="94" x="58" y="683.1426">is_available : bool</text><rect fill="none" height="6" style="stroke: #595959; stroke-width: 1.0;" width="6" x="46" y="690.4404"/><text fill="#000000" font-family="sans-serif" font-size="11" lengthAdjust="spacingAndGlyphs" textLength="139" x="58" y="696.0977">full_cv : String {link to file}</text><rect fill="none" height="6" style="stroke: #595959; stroke-width: 1.0;" width="6" x="46" y="703.3955"/><text fill="#000000" font-family="sans-serif" font-size="11" lengthAdjust="spacingAndGlyphs" textLength="204" x="58" y="709.0527">staffingRequestList : [StaffingRequest]</text><line style="stroke: #383838; stroke-width: 1.5;" x1="39" x2="267" y1="715.373" y2="715.373"/><rect fill="#F8F8F8" filter="url(#f1)" height="60.9551" style="stroke: #383838; stroke-width: 1.5;" width="230" x="81" y="753.5977"/><ellipse cx="164.25" cy="769.5977" fill="#C2C2C2" rx="11" ry="11" style="stroke: #383838; stroke-width: 1.0;"/><path d="M167.2231,775.2407 Q166.6421,775.5396 166.0029,775.689 Q165.3638,775.8384 164.6582,775.8384 Q162.1514,775.8384 160.8315,774.1865 Q159.5117,772.5347 159.5117,769.4136 Q159.5117,766.2842 160.8315,764.6323 Q162.1514,762.9805 164.6582,762.9805 Q165.3638,762.9805 166.0112,763.1299 Q166.6587,763.2793 167.2231,763.5781 L167.2231,766.3008 Q166.5923,765.7197 165.9988,765.45 Q165.4053,765.1802 164.7744,765.1802 Q163.4297,765.1802 162.7449,766.2468 Q162.0601,767.3135 162.0601,769.4136 Q162.0601,771.5054 162.7449,772.572 Q163.4297,773.6387 164.7744,773.6387 Q165.4053,773.6387 165.9988,773.3689 Q166.5923,773.0991 167.2231,772.5181 Z "/><text fill="#000000" font-family="sans-serif" font-size="12" lengthAdjust="spacingAndGlyphs" textLength="55" x="184.75" y="774.1328">PSSMUser</text><line style="stroke: #383838; stroke-width: 1.5;" x1="82" x2="310" y1="785.5977" y2="785.5977"/><rect fill="none" height="6" style="stroke: #595959; stroke-width: 1.0;" width="6" x="89" y="794.5752"/><text fill="#000000" font-family="sans-serif" font-size="11" lengthAdjust="spacingAndGlyphs" textLength="204" x="101" y="800.2324">staffingRequestList : [StaffingRequest]</text><line style="stroke: #383838; stroke-width: 1.5;" x1="82" x2="310" y1="806.5527" y2="806.5527"/><rect fill="#F8F8F8" filter="url(#f1)" height="86.8652" style="stroke: #383838; stroke-width: 1.5;" width="230" x="239" y="493.5977"/><ellipse cx="300.75" cy="509.5977" fill="#C2C2C2" rx="11" ry="11" style="stroke: #383838; stroke-width: 1.0;"/><path d="M303.7231,515.2407 Q303.1421,515.5396 302.5029,515.689 Q301.8638,515.8384 301.1582,515.8384 Q298.6514,515.8384 297.3315,514.1865 Q296.0117,512.5347 296.0117,509.4136 Q296.0117,506.2842 297.3315,504.6323 Q298.6514,502.9805 301.1582,502.9805 Q301.8638,502.9805 302.5112,503.1299 Q303.1587,503.2793 303.7231,503.5781 L303.7231,506.3008 Q303.0923,505.7197 302.4988,505.45 Q301.9053,505.1802 301.2744,505.1802 Q299.9297,505.1802 299.2449,506.2468 Q298.5601,507.3135 298.5601,509.4136 Q298.5601,511.5054 299.2449,512.572 Q299.9297,513.6387 301.2744,513.6387 Q301.9053,513.6387 302.4988,513.3689 Q303.0923,513.0991 303.7231,512.5181 Z "/><text fill="#000000" font-family="sans-serif" font-size="12" lengthAdjust="spacingAndGlyphs" textLength="98" x="321.25" y="514.1328">ContractManager</text><line style="stroke: #383838; stroke-width: 1.5;" x1="240" x2="468" y1="525.5977" y2="525.5977"/><rect fill="none" height="6" style="stroke: #595959; stroke-width: 1.0;" width="6" x="247" y="534.5752"/><text fill="#000000" font-family="sans-serif" font-size="11" lengthAdjust="spacingAndGlyphs" textLength="90" x="259" y="540.2324">employee_id : int</text><rect fill="none" height="6" style="stroke: #595959; stroke-width: 1.0;" width="6" x="247" y="547.5303"/><text fill="#000000" font-family="sans-serif" font-size="11" lengthAdjust="spacingAndGlyphs" textLength="128" x="259" y="553.1875">contractList : [Contract]</text><rect fill="none" height="6" style="stroke: #595959; stroke-width: 1.0;" width="6" x="247" y="560.4854"/><text fill="#000000" font-family="sans-serif" font-size="11" lengthAdjust="spacingAndGlyphs" textLength="204" x="259" y="566.1426">staffingRequestList : [StaffingRequest]</text><line style="stroke: #383838; stroke-width: 1.5;" x1="240" x2="468" y1="572.4629" y2="572.4629"/><rect fill="#F8F8F8" filter="url(#f1)" height="138.6855" style="stroke: #383838; stroke-width: 1.5;" width="199" x="87.5" y="1182.5977"/><ellipse cx="138.25" cy="1198.5977" fill="#C2C2C2" rx="11" ry="11" style="stroke: #383838; stroke-width: 1.0;"/><path d="M141.2231,1204.2407 Q140.6421,1204.5396 140.0029,1204.689 Q139.3638,1204.8384 138.6582,1204.8384 Q136.1514,1204.8384 134.8315,1203.1865 Q133.5117,1201.5347 133.5117,1198.4136 Q133.5117,1195.2842 134.8315,1193.6323 Q136.1514,1191.9805 138.6582,1191.9805 Q139.3638,1191.9805 140.0112,1192.1299 Q140.6587,1192.2793 141.2231,1192.5781 L141.2231,1195.3008 Q140.5923,1194.7197 139.9988,1194.45 Q139.4053,1194.1802 138.7744,1194.1802 Q137.4297,1194.1802 136.7449,1195.2468 Q136.0601,1196.3135 136.0601,1198.4136 Q136.0601,1200.5054 136.7449,1201.572 Q137.4297,1202.6387 138.7744,1202.6387 Q139.4053,1202.6387 139.9988,1202.3689 Q140.5923,1202.0991 141.2231,1201.5181 Z "/><text fill="#000000" font-family="sans-serif" font-size="12" lengthAdjust="spacingAndGlyphs" textLength="89" x="158.75" y="1203.1328">StaffingRequest</text><line style="stroke: #383838; stroke-width: 1.5;" x1="88.5" x2="285.5" y1="1214.5977" y2="1214.5977"/><rect fill="none" height="6" style="stroke: #595959; stroke-width: 1.0;" width="6" x="95.5" y="1223.5752"/><text fill="#000000" font-family="sans-serif" font-size="11" lengthAdjust="spacingAndGlyphs" textLength="33" x="107.5" y="1229.2324">id : int</text><rect fill="none" height="6" style="stroke: #595959; stroke-width: 1.0;" width="6" x="95.5" y="1236.5303"/><text fill="#000000" font-family="sans-serif" font-size="11" lengthAdjust="spacingAndGlyphs" textLength="101" x="107.5" y="1242.1875">contract : Contract</text><rect fill="none" height="6" style="stroke: #595959; stroke-width: 1.0;" width="6" x="95.5" y="1249.4854"/><text fill="#000000" font-family="sans-serif" font-size="11" lengthAdjust="spacingAndGlyphs" textLength="134" x="107.5" y="1255.1426">qualificationList : [String]</text><rect fill="none" height="6" style="stroke: #595959; stroke-width: 1.0;" width="6" x="95.5" y="1262.4404"/><text fill="#000000" font-family="sans-serif" font-size="11" lengthAdjust="spacingAndGlyphs" textLength="173" x="107.5" y="1268.0977">minimum_experience_years : int</text><rect fill="none" height="6" style="stroke: #595959; stroke-width: 1.0;" width="6" x="95.5" y="1275.3955"/><text fill="#000000" font-family="sans-serif" font-size="11" lengthAdjust="spacingAndGlyphs" textLength="87" x="107.5" y="1281.0527">start_date : Date</text><rect fill="none" height="6" style="stroke: #595959; stroke-width: 1.0;" width="6" x="95.5" y="1288.3506"/><text fill="#000000" font-family="sans-serif" font-size="11" lengthAdjust="spacingAndGlyphs" textLength="82" x="107.5" y="1294.0078">end_date : Date</text><rect fill="none" height="6" style="stroke: #595959; stroke-width: 1.0;" width="6" x="95.5" y="1301.3057"/><text fill="#000000" font-family="sans-serif" font-size="11" lengthAdjust="spacingAndGlyphs" textLength="110" x="107.5" y="1306.9629">salary_offer : double</text><line style="stroke: #383838; stroke-width: 1.5;" x1="88.5" x2="285.5" y1="1313.2832" y2="1313.2832"/><rect fill="#F8F8F8" filter="url(#f1)" height="151.6406" style="stroke: #383838; stroke-width: 1.5;" width="160" x="309" y="875.5977"/><ellipse cx="360.75" cy="891.5977" fill="#C2C2C2" rx="11" ry="11" style="stroke: #383838; stroke-width: 1.0;"/><path d="M363.7231,897.2407 Q363.1421,897.5396 362.5029,897.689 Q361.8638,897.8384 361.1582,897.8384 Q358.6514,897.8384 357.3315,896.1865 Q356.0117,894.5347 356.0117,891.4136 Q356.0117,888.2842 357.3315,886.6323 Q358.6514,884.9805 361.1582,884.9805 Q361.8638,884.9805 362.5112,885.1299 Q363.1587,885.2793 363.7231,885.5781 L363.7231,888.3008 Q363.0923,887.7197 362.4988,887.45 Q361.9053,887.1802 361.2744,887.1802 Q359.9297,887.1802 359.2449,888.2468 Q358.5601,889.3135 358.5601,891.4136 Q358.5601,893.5054 359.2449,894.572 Q359.9297,895.6387 361.2744,895.6387 Q361.9053,895.6387 362.4988,895.3689 Q363.0923,895.0991 363.7231,894.5181 Z "/><text fill="#000000" font-family="sans-serif" font-size="12" lengthAdjust="spacingAndGlyphs" textLength="48" x="381.25" y="896.1328">Contract</text><line style="stroke: #383838; stroke-width: 1.5;" x1="310" x2="468" y1="907.5977" y2="907.5977"/><rect fill="none" height="6" style="stroke: #595959; stroke-width: 1.0;" width="6" x="317" y="916.5752"/><text fill="#000000" font-family="sans-serif" font-size="11" lengthAdjust="spacingAndGlyphs" textLength="33" x="329" y="922.2324">id : int</text><rect fill="none" height="6" style="stroke: #595959; stroke-width: 1.0;" width="6" x="317" y="929.5303"/><text fill="#000000" font-family="sans-serif" font-size="11" lengthAdjust="spacingAndGlyphs" textLength="70" x="329" y="935.1875">client : String</text><rect fill="none" height="6" style="stroke: #595959; stroke-width: 1.0;" width="6" x="317" y="942.4854"/><text fill="#000000" font-family="sans-serif" font-size="11" lengthAdjust="spacingAndGlyphs" textLength="101" x="329" y="948.1426">short_desc : String</text><rect fill="none" height="6" style="stroke: #595959; stroke-width: 1.0;" width="6" x="317" y="955.4404"/><text fill="#000000" font-family="sans-serif" font-size="11" lengthAdjust="spacingAndGlyphs" textLength="64" x="329" y="961.0977">field : String</text><rect fill="none" height="6" style="stroke: #595959; stroke-width: 1.0;" width="6" x="317" y="968.3955"/><text fill="#000000" font-family="sans-serif" font-size="11" lengthAdjust="spacingAndGlyphs" textLength="134" x="329" y="974.0527">qualificationList : [String]</text><rect fill="none" height="6" style="stroke: #595959; stroke-width: 1.0;" width="6" x="317" y="981.3506"/><text fill="#000000" font-family="sans-serif" font-size="11" lengthAdjust="spacingAndGlyphs" textLength="87" x="329" y="987.0078">start_date : Date</text><rect fill="none" height="6" style="stroke: #595959; stroke-width: 1.0;" width="6" x="317" y="994.3057"/><text fill="#000000" font-family="sans-serif" font-size="11" lengthAdjust="spacingAndGlyphs" textLength="82" x="329" y="999.9629">end_date : Date</text><rect fill="none" height="6" style="stroke: #595959; stroke-width: 1.0;" width="6" x="317" y="1007.2607"/><text fill="#000000" font-family="sans-serif" font-size="11" lengthAdjust="spacingAndGlyphs" textLength="134" x="329" y="1012.918">minimum_salary : double</text><line style="stroke: #383838; stroke-width: 1.5;" x1="310" x2="468" y1="1019.2383" y2="1019.2383"/><path d="M203,196.9877 C203,230.5677 203,280.9377 203,319.5577 " fill="none" style="stroke: #383838; stroke-width: 1.0;"/><text fill="#000000" font-family="sans-serif" font-size="13" lengthAdjust="spacingAndGlyphs" textLength="22" x="179.1781" y="217.0241">1..*</text><text fill="#000000" font-family="sans-serif" font-size="13" lengthAdjust="spacingAndGlyphs" textLength="8" x="194.4875" y="308.9552">1</text><path d="M189.916,452.7217 C181.358,502.1897 170.367,565.7157 162.611,610.5467 " fill="none" style="stroke: #383838; stroke-width: 1.0;"/><polygon fill="none" points="183.052,451.3337,193.359,432.8197,196.847,453.7207,183.052,451.3337" style="stroke: #383838; stroke-width: 1.0;"/><path d="M202.774,452.9257 C203.931,501.6577 208.14,559.6327 221,580.5977 C234.154,602.0417 256.805,588.5937 269,610.5977 C293.346,654.5237 290.549,678.2337 269,723.5977 C263.528,735.1167 254.614,745.1407 244.862,753.5107 " fill="none" style="stroke: #383838; stroke-width: 1.0;"/><polygon fill="none" points="195.772,452.8517,202.449,432.7417,209.77,452.6267,195.772,452.8517" style="stroke: #383838; stroke-width: 1.0;"/><path d="M269.885,447.5267 C284.789,463.2197 300.147,479.3907 313.594,493.5507 " fill="none" style="stroke: #383838; stroke-width: 1.0;"/><polygon fill="none" points="264.509,452.0307,255.812,432.7077,274.661,442.3897,264.509,452.0307" style="stroke: #383838; stroke-width: 1.0;"/><path d="M189.505,814.6867 C185.959,832.2847 181.911,855.1037 180,875.5977 C170.041,982.3917 175.771,1106.9857 181.14,1182.4077 " fill="none" style="stroke: #383838; stroke-width: 1.0;"/><text fill="#000000" font-family="sans-serif" font-size="13" lengthAdjust="spacingAndGlyphs" textLength="34" x="177" y="1071.166">fulfill</text><text fill="#000000" font-family="sans-serif" font-size="13" lengthAdjust="spacingAndGlyphs" textLength="8" x="179.3404" y="835.1475">1</text><text fill="#000000" font-family="sans-serif" font-size="13" lengthAdjust="spacingAndGlyphs" textLength="22" x="181.6701" y="1172.048">0..*</text><path d="M81.8997,723.8147 C74.2498,732.9167 67.5911,742.9037 63,753.5977 C52.3048,778.5097 59.26,787.7457 63,814.5977 C81.5568,947.8277 130.524,1097.5207 161.079,1182.4437 " fill="none" style="stroke: #383838; stroke-width: 1.0;"/><text fill="#000000" font-family="sans-serif" font-size="13" lengthAdjust="spacingAndGlyphs" textLength="41" x="112" y="956.666">accept</text><text fill="#000000" font-family="sans-serif" font-size="13" lengthAdjust="spacingAndGlyphs" textLength="8" x="65.0181" y="743.7685">1</text><text fill="#000000" font-family="sans-serif" font-size="13" lengthAdjust="spacingAndGlyphs" textLength="22" x="135.2715" y="1172.0877">0..*</text><path d="M352.128,580.6707 C348.648,653.2137 340.477,794.8927 329,814.5977 C305.048,855.7197 265.462,834.7767 241,875.5977 C195.235,951.9687 230.818,986.4917 218,1074.5977 C212.804,1110.3107 205.952,1149.8987 200.012,1182.5167 " fill="none" style="stroke: #383838; stroke-width: 1.0;"/><text fill="#000000" font-family="sans-serif" font-size="13" lengthAdjust="spacingAndGlyphs" textLength="49" x="242" y="956.666">manage</text><text fill="#000000" font-family="sans-serif" font-size="13" lengthAdjust="spacingAndGlyphs" textLength="8" x="343.2288" y="601.0937">1</text><text fill="#000000" font-family="sans-serif" font-size="13" lengthAdjust="spacingAndGlyphs" textLength="22" x="202.6383" y="1171.6885">0..*</text><path d="M357.614,580.6887 C363.517,650.2647 375.305,789.1877 382.634,875.5757 " fill="none" style="stroke: #383838; stroke-width: 1.0;"/><text fill="#000000" font-family="sans-serif" font-size="13" lengthAdjust="spacingAndGlyphs" textLength="22" x="378" y="789.166">has</text><text fill="#000000" font-family="sans-serif" font-size="13" lengthAdjust="spacingAndGlyphs" textLength="8" x="358.7799" y="601.1144">1</text><text fill="#000000" font-family="sans-serif" font-size="13" lengthAdjust="spacingAndGlyphs" textLength="22" x="358.9245" y="864.9553">0..*</text><path d="M338.027,1027.9217 C305.886,1075.4177 264.702,1136.2757 233.462,1182.4397 " fill="none" style="stroke: #383838; stroke-width: 1.0;"/><text fill="#000000" font-family="sans-serif" font-size="13" lengthAdjust="spacingAndGlyphs" textLength="22" x="287" y="1118.166">has</text><text fill="#000000" font-family="sans-serif" font-size="13" lengthAdjust="spacingAndGlyphs" textLength="8" x="325.3028" y="1047.7224">1</text><text fill="#000000" font-family="sans-serif" font-size="13" lengthAdjust="spacingAndGlyphs" textLength="22" x="239.3878" y="1172.0833">0..*</text></g></svg>