<?xml version="1.0" encoding="UTF-8" standalone="no"?><svg xmlns="http://www.w3.org/2000/svg" xmlns:xlink="http://www.w3.org/1999/xlink" contentScriptType="application/ecmascript" contentStyleType="text/css" height="1218px" preserveAspectRatio="none" style="width:878px;height:1218px;" version="1.1" viewBox="0 0 878 1218" width="878px" zoomAndPan="magnify"><defs><filter height="300%" id="fkp7suw" width="300%" x="-1" y="-1"><feGaussianBlur result="blurOut" stdDeviation="2.0"/><feColorMatrix in="blurOut" result="blurOut2" type="matrix" values="0 0 0 0 0 0 0 0 0 0 0 0 0 0 0 0 0 0 .4 0"/><feOffset dx="4.0" dy="4.0" in="blurOut2" result="blurOut3"/><feBlend in="SourceGraphic" in2="blurOut3" mode="normal"/></filter></defs><g><text fill="#000000" font-family="sans-serif" font-size="18" lengthAdjust="spacingAndGlyphs" textLength="46" x="417.5" y="27.4023">PSSM</text><text fill="#000000" font-family="sans-serif" font-size="18" lengthAdjust="spacingAndGlyphs" textLength="307" x="287" y="48.6016">Temporary Staff Fullfilment System</text><text fill="#000000" font-family="sans-serif" font-size="18" lengthAdjust="spacingAndGlyphs" textLength="142" x="369.5" y="69.8008">Activity Diagram</text><ellipse cx="594.625" cy="83.5977" fill="#000000" filter="url(#fkp7suw)" rx="10" ry="10" style="stroke: none; stroke-width: 1.0;"/><polygon fill="#ECECEC" filter="url(#fkp7suw)" points="342.125,118.0088,342.125,143.3193,495.125,143.3193,495.125,128.0088,485.125,118.0088,342.125,118.0088" style="stroke: #383838; stroke-width: 1.0;"/><polygon fill="#ECECEC" points="342.125,118.0088,342.125,143.3193,495.125,143.3193,495.125,136.0088,515.125,130.6641,495.125,128.0088,495.125,128.0088,485.125,118.0088,342.125,118.0088" style="stroke: #383838; stroke-width: 1.0;"/><line style="stroke: #383838; stroke-width: 1.0;" x1="485.125" x2="485.125" y1="118.0088" y2="128.0088"/><line style="stroke: #383838; stroke-width: 1.0;" x1="495.125" x2="485.125" y1="128.0088" y2="128.0088"/><text fill="#000000" font-family="sans-serif" font-size="13" lengthAdjust="spacingAndGlyphs" textLength="132" x="348.125" y="135.5771">TRIGGER: from Client</text><rect fill="#F8F8F8" filter="url(#fkp7suw)" height="34.1328" rx="12.5" ry="12.5" style="stroke: #383838; stroke-width: 1.5;" width="159" x="515.125" y="113.5977"/><text fill="#000000" font-family="sans-serif" font-size="12" lengthAdjust="spacingAndGlyphs" textLength="139" x="525.125" y="135.1992">receive staffing demand</text><polygon fill="#ECECEC" filter="url(#fkp7suw)" points="395.125,157.7305,395.125,213.6621,523.125,213.6621,523.125,167.7305,513.125,157.7305,395.125,157.7305" style="stroke: #383838; stroke-width: 1.0;"/><polygon fill="#ECECEC" points="395.125,157.7305,395.125,213.6621,523.125,213.6621,523.125,189.6963,543.125,185.6963,523.125,181.6963,523.125,167.7305,513.125,157.7305,395.125,157.7305" style="stroke: #383838; stroke-width: 1.0;"/><line style="stroke: #383838; stroke-width: 1.0;" x1="513.125" x2="513.125" y1="157.7305" y2="167.7305"/><line style="stroke: #383838; stroke-width: 1.0;" x1="523.125" x2="513.125" y1="167.7305" y2="167.7305"/><text fill="#000000" font-family="sans-serif" font-size="13" lengthAdjust="spacingAndGlyphs" textLength="74" x="401.125" y="175.2988">Not expired</text><text fill="#000000" font-family="sans-serif" font-size="13" lengthAdjust="spacingAndGlyphs" textLength="104" x="401.125" y="190.6094">Position covered</text><text fill="#000000" font-family="sans-serif" font-size="13" lengthAdjust="spacingAndGlyphs" textLength="107" x="401.125" y="205.9199">Fee falls in range</text><rect fill="#F8F8F8" filter="url(#fkp7suw)" height="34.1328" rx="12.5" ry="12.5" style="stroke: #383838; stroke-width: 1.5;" width="103" x="543.125" y="168.6299"/><text fill="#000000" font-family="sans-serif" font-size="12" lengthAdjust="spacingAndGlyphs" textLength="83" x="553.125" y="190.2314">check contract</text><polygon fill="#F8F8F8" filter="url(#fkp7suw)" points="550.625,233.6621,638.625,233.6621,650.625,245.6621,638.625,257.6621,550.625,257.6621,538.625,245.6621,550.625,233.6621" style="stroke: #383838; stroke-width: 1.5;"/><text fill="#000000" font-family="sans-serif" font-size="11" lengthAdjust="spacingAndGlyphs" textLength="88" x="550.625" y="249.8193">demand is valid?</text><text fill="#000000" font-family="sans-serif" font-size="11" lengthAdjust="spacingAndGlyphs" textLength="18" x="520.625" y="243.3418">yes</text><text fill="#000000" font-family="sans-serif" font-size="11" lengthAdjust="spacingAndGlyphs" textLength="14" x="650.625" y="243.3418">no</text><rect fill="#F8F8F8" filter="url(#fkp7suw)" height="48.2656" rx="12.5" ry="12.5" style="stroke: #383838; stroke-width: 1.5;" width="140" x="327.25" y="267.6621"/><text fill="#000000" font-family="sans-serif" font-size="12" lengthAdjust="spacingAndGlyphs" textLength="120" x="337.25" y="289.2637">Open an outstanding</text><text fill="#000000" font-family="sans-serif" font-size="12" lengthAdjust="spacingAndGlyphs" textLength="93" x="337.25" y="303.3965">Staffing Request</text><polygon fill="#ECECEC" filter="url(#fkp7suw)" points="502.75,398.793,502.75,454.7246,611.75,454.7246,611.75,408.793,601.75,398.793,502.75,398.793" style="stroke: #383838; stroke-width: 1.0;"/><polygon fill="#ECECEC" points="502.75,398.793,502.75,422.7588,482.75,426.7588,502.75,430.7588,502.75,454.7246,611.75,454.7246,611.75,408.793,601.75,398.793,502.75,398.793" style="stroke: #383838; stroke-width: 1.0;"/><line style="stroke: #383838; stroke-width: 1.0;" x1="601.75" x2="601.75" y1="398.793" y2="408.793"/><line style="stroke: #383838; stroke-width: 1.0;" x1="611.75" x2="601.75" y1="408.793" y2="408.793"/><text fill="#000000" font-family="sans-serif" font-size="13" lengthAdjust="spacingAndGlyphs" textLength="80" x="508.75" y="416.3613">Type of staff</text><text fill="#000000" font-family="sans-serif" font-size="13" lengthAdjust="spacingAndGlyphs" textLength="68" x="508.75" y="431.6719">Experience</text><text fill="#000000" font-family="sans-serif" font-size="13" lengthAdjust="spacingAndGlyphs" textLength="88" x="508.75" y="446.9824">Qualifications</text><rect fill="#F8F8F8" filter="url(#fkp7suw)" height="48.2656" rx="12.5" ry="12.5" style="stroke: #383838; stroke-width: 1.5;" width="171" x="311.75" y="402.626"/><text fill="#000000" font-family="sans-serif" font-size="12" lengthAdjust="spacingAndGlyphs" textLength="151" x="321.75" y="424.2275">check employee database</text><text fill="#000000" font-family="sans-serif" font-size="12" lengthAdjust="spacingAndGlyphs" textLength="126" x="321.75" y="438.3604">for suitable candidate</text><polygon fill="#F8F8F8" filter="url(#fkp7suw)" points="372.75,474.7246,421.75,474.7246,433.75,486.7246,421.75,498.7246,372.75,498.7246,360.75,486.7246,372.75,474.7246" style="stroke: #383838; stroke-width: 1.5;"/><text fill="#000000" font-family="sans-serif" font-size="11" lengthAdjust="spacingAndGlyphs" textLength="49" x="372.75" y="490.8818">is found?</text><text fill="#000000" font-family="sans-serif" font-size="11" lengthAdjust="spacingAndGlyphs" textLength="18" x="342.75" y="484.4043">yes</text><text fill="#000000" font-family="sans-serif" font-size="11" lengthAdjust="spacingAndGlyphs" textLength="14" x="433.75" y="484.4043">no</text><rect fill="#F8F8F8" filter="url(#fkp7suw)" height="48.2656" rx="12.5" ry="12.5" style="stroke: #383838; stroke-width: 1.5;" width="111" x="129" y="508.7246"/><text fill="#000000" font-family="sans-serif" font-size="12" lengthAdjust="spacingAndGlyphs" textLength="91" x="139" y="530.3262">mark candidate</text><text fill="#000000" font-family="sans-serif" font-size="12" lengthAdjust="spacingAndGlyphs" textLength="59" x="139" y="544.459">"reserved"</text><rect fill="#F8F8F8" filter="url(#fkp7suw)" height="34.1328" rx="12.5" ry="12.5" style="stroke: #383838; stroke-width: 1.5;" width="122" x="123.5" y="576.9902"/><text fill="#000000" font-family="sans-serif" font-size="12" lengthAdjust="spacingAndGlyphs" textLength="102" x="133.5" y="598.5918">contact candidate</text><polygon fill="#F8F8F8" filter="url(#fkp7suw)" points="134.5,638.335,234.5,638.335,246.5,650.335,234.5,662.335,134.5,662.335,122.5,650.335,134.5,638.335" style="stroke: #383838; stroke-width: 1.5;"/><text fill="#000000" font-family="sans-serif" font-size="11" lengthAdjust="spacingAndGlyphs" textLength="100" x="134.5" y="654.4922">placement agreed?</text><text fill="#000000" font-family="sans-serif" font-size="11" lengthAdjust="spacingAndGlyphs" textLength="18" x="104.5" y="648.0146">yes</text><text fill="#000000" font-family="sans-serif" font-size="11" lengthAdjust="spacingAndGlyphs" textLength="14" x="246.5" y="648.0146">no</text><rect fill="#F8F8F8" filter="url(#fkp7suw)" height="48.2656" rx="12.5" ry="12.5" style="stroke: #383838; stroke-width: 1.5;" width="111" x="57" y="672.335"/><text fill="#000000" font-family="sans-serif" font-size="12" lengthAdjust="spacingAndGlyphs" textLength="91" x="67" y="693.9365">mark candidate</text><text fill="#000000" font-family="sans-serif" font-size="12" lengthAdjust="spacingAndGlyphs" textLength="47" x="67" y="708.0693">"placed"</text><rect fill="#F8F8F8" filter="url(#fkp7suw)" height="62.3984" rx="12.5" ry="12.5" style="stroke: #383838; stroke-width: 1.5;" width="113" x="56" y="740.6006"/><text fill="#000000" font-family="sans-serif" font-size="12" lengthAdjust="spacingAndGlyphs" textLength="74" x="66" y="762.2021">send Staffing</text><text fill="#000000" font-family="sans-serif" font-size="12" lengthAdjust="spacingAndGlyphs" textLength="93" x="66" y="776.335">Request and Bill</text><text fill="#000000" font-family="sans-serif" font-size="12" lengthAdjust="spacingAndGlyphs" textLength="47" x="66" y="790.4678">to Client</text><polygon fill="#ECECEC" filter="url(#fkp7suw)" points="339,676.1572,339,716.7783,519,716.7783,519,686.1572,509,676.1572,339,676.1572" style="stroke: #383838; stroke-width: 1.0;"/><polygon fill="#ECECEC" points="339,676.1572,339,692.4678,319,696.4678,339,700.4678,339,716.7783,519,716.7783,519,686.1572,509,676.1572,339,676.1572" style="stroke: #383838; stroke-width: 1.0;"/><line style="stroke: #383838; stroke-width: 1.0;" x1="509" x2="509" y1="676.1572" y2="686.1572"/><line style="stroke: #383838; stroke-width: 1.0;" x1="519" x2="509" y1="686.1572" y2="686.1572"/><text fill="#000000" font-family="sans-serif" font-size="13" lengthAdjust="spacingAndGlyphs" textLength="82" x="345" y="693.7256">Keep looking</text><text fill="#000000" font-family="sans-serif" font-size="13" lengthAdjust="spacingAndGlyphs" textLength="159" x="345" y="709.0361">for prospective Employee</text><rect fill="#F8F8F8" filter="url(#fkp7suw)" height="48.2656" rx="12.5" ry="12.5" style="stroke: #383838; stroke-width: 1.5;" width="125" x="194" y="672.335"/><text fill="#000000" font-family="sans-serif" font-size="12" lengthAdjust="spacingAndGlyphs" textLength="105" x="204" y="693.9365">unmark candidate</text><text fill="#000000" font-family="sans-serif" font-size="12" lengthAdjust="spacingAndGlyphs" textLength="59" x="204" y="708.0693">"reserved"</text><polygon fill="#F8F8F8" filter="url(#fkp7suw)" points="184.5,808.999,196.5,820.999,184.5,832.999,172.5,820.999,184.5,808.999" style="stroke: #383838; stroke-width: 1.5;"/><rect fill="#F8F8F8" filter="url(#fkp7suw)" height="34.1328" rx="12.5" ry="12.5" style="stroke: #383838; stroke-width: 1.5;" width="122" x="549" y="508.7246"/><text fill="#000000" font-family="sans-serif" font-size="12" lengthAdjust="spacingAndGlyphs" textLength="102" x="559" y="530.3262">create UTF memo</text><polygon fill="#F8F8F8" filter="url(#fkp7suw)" points="397.25,838.999,409.25,850.999,397.25,862.999,385.25,850.999,397.25,838.999" style="stroke: #383838; stroke-width: 1.5;"/><polygon fill="#F8F8F8" filter="url(#fkp7suw)" points="359.75,335.9277,434.75,335.9277,446.75,348.8828,434.75,361.8379,359.75,361.8379,347.75,348.8828,359.75,335.9277" style="stroke: #383838; stroke-width: 1.5;"/><text fill="#000000" font-family="sans-serif" font-size="11" lengthAdjust="spacingAndGlyphs" textLength="18" x="401.25" y="372.4727">yes</text><text fill="#000000" font-family="sans-serif" font-size="11" lengthAdjust="spacingAndGlyphs" textLength="51" x="368.75" y="346.5625">employee</text><text fill="#000000" font-family="sans-serif" font-size="11" lengthAdjust="spacingAndGlyphs" textLength="75" x="359.75" y="359.5176">search active?</text><text fill="#000000" font-family="sans-serif" font-size="11" lengthAdjust="spacingAndGlyphs" textLength="14" x="333.75" y="346.5625">no</text><rect fill="#F8F8F8" filter="url(#fkp7suw)" height="48.2656" rx="12.5" ry="12.5" style="stroke: #383838; stroke-width: 1.5;" width="158" x="713" y="267.6621"/><text fill="#000000" font-family="sans-serif" font-size="12" lengthAdjust="spacingAndGlyphs" textLength="132" x="723" y="289.2637">return Staffing Request</text><text fill="#000000" font-family="sans-serif" font-size="12" lengthAdjust="spacingAndGlyphs" textLength="138" x="723" y="303.3965">with Why Letter to Client</text><rect fill="#F8F8F8" filter="url(#fkp7suw)" height="48.2656" rx="12.5" ry="12.5" style="stroke: #383838; stroke-width: 1.5;" width="130" x="727" y="335.9277"/><text fill="#000000" font-family="sans-serif" font-size="12" lengthAdjust="spacingAndGlyphs" textLength="81" x="737" y="357.5293">file Why Letter</text><text fill="#000000" font-family="sans-serif" font-size="12" lengthAdjust="spacingAndGlyphs" textLength="110" x="737" y="371.6621">with Contract office</text><ellipse cx="792" cy="429.1934" fill="#FFFFFF" filter="url(#fkp7suw)" rx="10" ry="10" style="stroke: #000000; stroke-width: 1.5;"/><line style="stroke: #000000; stroke-width: 2.5;" x1="785.8128" x2="798.1872" y1="423.0062" y2="435.3805"/><line style="stroke: #000000; stroke-width: 2.5;" x1="798.1872" x2="785.8128" y1="423.0062" y2="435.3805"/><polygon fill="#ECECEC" filter="url(#fkp7suw)" points="378.625,908.2324,378.625,964.1641,512.625,964.1641,512.625,918.2324,502.625,908.2324,378.625,908.2324" style="stroke: #383838; stroke-width: 1.0;"/><polygon fill="#ECECEC" points="378.625,908.2324,378.625,964.1641,512.625,964.1641,512.625,940.1982,532.625,936.1982,512.625,932.1982,512.625,918.2324,502.625,908.2324,378.625,908.2324" style="stroke: #383838; stroke-width: 1.0;"/><line style="stroke: #383838; stroke-width: 1.0;" x1="502.625" x2="502.625" y1="908.2324" y2="918.2324"/><line style="stroke: #383838; stroke-width: 1.0;" x1="512.625" x2="502.625" y1="918.2324" y2="918.2324"/><text fill="#000000" font-family="sans-serif" font-size="13" lengthAdjust="spacingAndGlyphs" textLength="103" x="384.625" y="925.8008">Staffing Request</text><text fill="#000000" font-family="sans-serif" font-size="13" lengthAdjust="spacingAndGlyphs" textLength="113" x="384.625" y="941.1113">UTF Memo (if any)</text><text fill="#000000" font-family="sans-serif" font-size="13" lengthAdjust="spacingAndGlyphs" textLength="19" x="384.625" y="956.4219">Bill</text><rect fill="#F8F8F8" filter="url(#fkp7suw)" height="62.3984" rx="12.5" ry="12.5" style="stroke: #383838; stroke-width: 1.5;" width="124" x="532.625" y="904.999"/><text fill="#000000" font-family="sans-serif" font-size="12" lengthAdjust="spacingAndGlyphs" textLength="89" x="542.625" y="926.6006">send document</text><text fill="#000000" font-family="sans-serif" font-size="12" lengthAdjust="spacingAndGlyphs" textLength="104" x="542.625" y="940.7334">copies to Contract</text><text fill="#000000" font-family="sans-serif" font-size="12" lengthAdjust="spacingAndGlyphs" textLength="50" x="542.625" y="954.8662">Manager</text><polygon fill="#F8F8F8" filter="url(#fkp7suw)" points="553.125,987.3975,636.125,987.3975,648.125,999.3975,636.125,1011.3975,553.125,1011.3975,541.125,999.3975,553.125,987.3975" style="stroke: #383838; stroke-width: 1.5;"/><text fill="#000000" font-family="sans-serif" font-size="11" lengthAdjust="spacingAndGlyphs" textLength="83" x="553.125" y="1003.5547">is demand met?</text><rect fill="#F8F8F8" filter="url(#fkp7suw)" height="48.2656" rx="12.5" ry="12.5" style="stroke: #383838; stroke-width: 1.5;" width="113" x="474.625" y="1021.3975"/><text fill="#000000" font-family="sans-serif" font-size="12" lengthAdjust="spacingAndGlyphs" textLength="64" x="484.625" y="1042.999">Close open</text><text fill="#000000" font-family="sans-serif" font-size="12" lengthAdjust="spacingAndGlyphs" textLength="93" x="484.625" y="1057.1318">Staffing Request</text><rect fill="#F8F8F8" filter="url(#fkp7suw)" height="34.1328" rx="12.5" ry="12.5" style="stroke: #383838; stroke-width: 1.5;" width="87" x="614.625" y="1021.3975"/><text fill="#000000" font-family="sans-serif" font-size="12" lengthAdjust="spacingAndGlyphs" textLength="67" x="624.625" y="1042.999">notify Client</text><polygon fill="#F8F8F8" filter="url(#fkp7suw)" points="594.625,1075.6631,606.625,1087.6631,594.625,1099.6631,582.625,1087.6631,594.625,1075.6631" style="stroke: #383838; stroke-width: 1.5;"/><polygon fill="#ECECEC" filter="url(#fkp7suw)" points="392.125,1115.8301,392.125,1171.7617,516.125,1171.7617,516.125,1125.8301,506.125,1115.8301,392.125,1115.8301" style="stroke: #383838; stroke-width: 1.0;"/><polygon fill="#ECECEC" points="392.125,1115.8301,392.125,1171.7617,516.125,1171.7617,516.125,1147.7959,536.125,1143.7959,516.125,1139.7959,516.125,1125.8301,506.125,1115.8301,392.125,1115.8301" style="stroke: #383838; stroke-width: 1.0;"/><line style="stroke: #383838; stroke-width: 1.0;" x1="506.125" x2="506.125" y1="1115.8301" y2="1125.8301"/><line style="stroke: #383838; stroke-width: 1.0;" x1="516.125" x2="506.125" y1="1125.8301" y2="1125.8301"/><text fill="#000000" font-family="sans-serif" font-size="13" lengthAdjust="spacingAndGlyphs" textLength="103" x="398.125" y="1133.3984">Staffing Request</text><text fill="#000000" font-family="sans-serif" font-size="13" lengthAdjust="spacingAndGlyphs" textLength="66" x="398.125" y="1148.709">UTF Memo</text><text fill="#000000" font-family="sans-serif" font-size="13" lengthAdjust="spacingAndGlyphs" textLength="19" x="398.125" y="1164.0195">Bill</text><rect fill="#F8F8F8" filter="url(#fkp7suw)" height="48.2656" rx="12.5" ry="12.5" style="stroke: #383838; stroke-width: 1.5;" width="117" x="536.125" y="1119.6631"/><text fill="#000000" font-family="sans-serif" font-size="12" lengthAdjust="spacingAndGlyphs" textLength="84" x="546.125" y="1141.2646">file paperwork</text><text fill="#000000" font-family="sans-serif" font-size="12" lengthAdjust="spacingAndGlyphs" textLength="97" x="546.125" y="1155.3975">in Contract office</text><ellipse cx="594.625" cy="1201.7617" fill="none" filter="url(#fkp7suw)" rx="10" ry="10" style="stroke: #000000; stroke-width: 1.0;"/><ellipse cx="595.125" cy="1202.2617" fill="#000000" filter="url(#fkp7suw)" rx="6" ry="6" style="stroke: none; stroke-width: 1.0;"/><line style="stroke: #383838; stroke-width: 1.5;" x1="594.625" x2="594.625" y1="93.5977" y2="113.5977"/><polygon fill="#383838" points="590.625,103.5977,594.625,113.5977,598.625,103.5977,594.625,107.5977" style="stroke: #383838; stroke-width: 1.0;"/><line style="stroke: #383838; stroke-width: 1.5;" x1="594.625" x2="594.625" y1="147.7305" y2="168.6299"/><polygon fill="#383838" points="590.625,158.6299,594.625,168.6299,598.625,158.6299,594.625,162.6299" style="stroke: #383838; stroke-width: 1.0;"/><line style="stroke: #383838; stroke-width: 1.5;" x1="184.5" x2="184.5" y1="556.9902" y2="576.9902"/><polygon fill="#383838" points="180.5,566.9902,184.5,576.9902,188.5,566.9902,184.5,570.9902" style="stroke: #383838; stroke-width: 1.0;"/><line style="stroke: #383838; stroke-width: 1.5;" x1="112.5" x2="112.5" y1="720.6006" y2="740.6006"/><polygon fill="#383838" points="108.5,730.6006,112.5,740.6006,116.5,730.6006,112.5,734.6006" style="stroke: #383838; stroke-width: 1.0;"/><line style="stroke: #383838; stroke-width: 1.5;" x1="122.5" x2="112.5" y1="650.335" y2="650.335"/><line style="stroke: #383838; stroke-width: 1.5;" x1="112.5" x2="112.5" y1="650.335" y2="672.335"/><polygon fill="#383838" points="108.5,662.335,112.5,672.335,116.5,662.335,112.5,666.335" style="stroke: #383838; stroke-width: 1.0;"/><line style="stroke: #383838; stroke-width: 1.5;" x1="246.5" x2="256.5" y1="650.335" y2="650.335"/><line style="stroke: #383838; stroke-width: 1.5;" x1="256.5" x2="256.5" y1="650.335" y2="672.335"/><polygon fill="#383838" points="252.5,662.335,256.5,672.335,260.5,662.335,256.5,666.335" style="stroke: #383838; stroke-width: 1.0;"/><line style="stroke: #383838; stroke-width: 1.5;" x1="112.5" x2="112.5" y1="802.999" y2="820.999"/><line style="stroke: #383838; stroke-width: 1.5;" x1="112.5" x2="172.5" y1="820.999" y2="820.999"/><polygon fill="#383838" points="162.5,816.999,172.5,820.999,162.5,824.999,166.5,820.999" style="stroke: #383838; stroke-width: 1.0;"/><line style="stroke: #383838; stroke-width: 1.5;" x1="256.5" x2="256.5" y1="720.6006" y2="820.999"/><line style="stroke: #383838; stroke-width: 1.5;" x1="256.5" x2="196.5" y1="820.999" y2="820.999"/><polygon fill="#383838" points="206.5,816.999,196.5,820.999,206.5,824.999,202.5,820.999" style="stroke: #383838; stroke-width: 1.0;"/><line style="stroke: #383838; stroke-width: 1.5;" x1="184.5" x2="184.5" y1="611.123" y2="638.335"/><polygon fill="#383838" points="180.5,628.335,184.5,638.335,188.5,628.335,184.5,632.335" style="stroke: #383838; stroke-width: 1.0;"/><line style="stroke: #383838; stroke-width: 1.5;" x1="360.75" x2="184.5" y1="486.7246" y2="486.7246"/><line style="stroke: #383838; stroke-width: 1.5;" x1="184.5" x2="184.5" y1="486.7246" y2="508.7246"/><polygon fill="#383838" points="180.5,498.7246,184.5,508.7246,188.5,498.7246,184.5,502.7246" style="stroke: #383838; stroke-width: 1.0;"/><line style="stroke: #383838; stroke-width: 1.5;" x1="433.75" x2="610" y1="486.7246" y2="486.7246"/><line style="stroke: #383838; stroke-width: 1.5;" x1="610" x2="610" y1="486.7246" y2="508.7246"/><polygon fill="#383838" points="606,498.7246,610,508.7246,614,498.7246,610,502.7246" style="stroke: #383838; stroke-width: 1.0;"/><line style="stroke: #383838; stroke-width: 1.5;" x1="184.5" x2="184.5" y1="832.999" y2="850.999"/><line style="stroke: #383838; stroke-width: 1.5;" x1="184.5" x2="385.25" y1="850.999" y2="850.999"/><polygon fill="#383838" points="375.25,846.999,385.25,850.999,375.25,854.999,379.25,850.999" style="stroke: #383838; stroke-width: 1.0;"/><line style="stroke: #383838; stroke-width: 1.5;" x1="610" x2="610" y1="542.8574" y2="850.999"/><line style="stroke: #383838; stroke-width: 1.5;" x1="610" x2="409.25" y1="850.999" y2="850.999"/><polygon fill="#383838" points="419.25,846.999,409.25,850.999,419.25,854.999,415.25,850.999" style="stroke: #383838; stroke-width: 1.0;"/><line style="stroke: #383838; stroke-width: 1.5;" x1="397.25" x2="397.25" y1="450.8916" y2="474.7246"/><polygon fill="#383838" points="393.25,464.7246,397.25,474.7246,401.25,464.7246,397.25,468.7246" style="stroke: #383838; stroke-width: 1.0;"/><line style="stroke: #383838; stroke-width: 1.5;" x1="397.25" x2="397.25" y1="361.8379" y2="402.626"/><polygon fill="#383838" points="393.25,392.626,397.25,402.626,401.25,392.626,397.25,396.626" style="stroke: #383838; stroke-width: 1.0;"/><line style="stroke: #383838; stroke-width: 1.5;" x1="397.25" x2="397.25" y1="862.999" y2="872.999"/><line style="stroke: #383838; stroke-width: 1.5;" x1="397.25" x2="693" y1="872.999" y2="872.999"/><polygon fill="#383838" points="689,618.335,693,608.335,697,618.335,693,614.335" style="stroke: #383838; stroke-width: 1.5;"/><line style="stroke: #383838; stroke-width: 1.5;" x1="693" x2="693" y1="348.8828" y2="872.999"/><line style="stroke: #383838; stroke-width: 1.5;" x1="693" x2="446.75" y1="348.8828" y2="348.8828"/><polygon fill="#383838" points="456.75,344.8828,446.75,348.8828,456.75,352.8828,452.75,348.8828" style="stroke: #383838; stroke-width: 1.0;"/><line style="stroke: #383838; stroke-width: 1.5;" x1="347.75" x2="24" y1="348.8828" y2="348.8828"/><polygon fill="#383838" points="20,607.335,24,617.335,28,607.335,24,611.335" style="stroke: #383838; stroke-width: 1.5;"/><line style="stroke: #383838; stroke-width: 1.5;" x1="24" x2="24" y1="348.8828" y2="889.999"/><line style="stroke: #383838; stroke-width: 1.5;" x1="24" x2="594.625" y1="889.999" y2="889.999"/><line style="stroke: #383838; stroke-width: 1.5;" x1="594.625" x2="594.625" y1="889.999" y2="904.999"/><polygon fill="#383838" points="590.625,894.999,594.625,904.999,598.625,894.999,594.625,898.999" style="stroke: #383838; stroke-width: 1.0;"/><line style="stroke: #383838; stroke-width: 1.5;" x1="397.25" x2="397.25" y1="315.9277" y2="335.9277"/><polygon fill="#383838" points="393.25,325.9277,397.25,335.9277,401.25,325.9277,397.25,329.9277" style="stroke: #383838; stroke-width: 1.0;"/><line style="stroke: #383838; stroke-width: 1.5;" x1="792" x2="792" y1="315.9277" y2="335.9277"/><polygon fill="#383838" points="788,325.9277,792,335.9277,796,325.9277,792,329.9277" style="stroke: #383838; stroke-width: 1.0;"/><line style="stroke: #383838; stroke-width: 1.5;" x1="792" x2="792" y1="384.1934" y2="419.1934"/><polygon fill="#383838" points="788,409.1934,792,419.1934,796,409.1934,792,413.1934" style="stroke: #383838; stroke-width: 1.0;"/><line style="stroke: #383838; stroke-width: 1.5;" x1="538.625" x2="397.25" y1="245.6621" y2="245.6621"/><line style="stroke: #383838; stroke-width: 1.5;" x1="397.25" x2="397.25" y1="245.6621" y2="267.6621"/><polygon fill="#383838" points="393.25,257.6621,397.25,267.6621,401.25,257.6621,397.25,261.6621" style="stroke: #383838; stroke-width: 1.0;"/><line style="stroke: #383838; stroke-width: 1.5;" x1="650.625" x2="792" y1="245.6621" y2="245.6621"/><line style="stroke: #383838; stroke-width: 1.5;" x1="792" x2="792" y1="245.6621" y2="267.6621"/><polygon fill="#383838" points="788,257.6621,792,267.6621,796,257.6621,792,261.6621" style="stroke: #383838; stroke-width: 1.0;"/><line style="stroke: #383838; stroke-width: 1.5;" x1="594.625" x2="594.625" y1="202.7627" y2="233.6621"/><polygon fill="#383838" points="590.625,223.6621,594.625,233.6621,598.625,223.6621,594.625,227.6621" style="stroke: #383838; stroke-width: 1.0;"/><line style="stroke: #383838; stroke-width: 1.5;" x1="541.125" x2="531.125" y1="999.3975" y2="999.3975"/><line style="stroke: #383838; stroke-width: 1.5;" x1="531.125" x2="531.125" y1="999.3975" y2="1021.3975"/><polygon fill="#383838" points="527.125,1011.3975,531.125,1021.3975,535.125,1011.3975,531.125,1015.3975" style="stroke: #383838; stroke-width: 1.0;"/><line style="stroke: #383838; stroke-width: 1.5;" x1="648.125" x2="658.125" y1="999.3975" y2="999.3975"/><line style="stroke: #383838; stroke-width: 1.5;" x1="658.125" x2="658.125" y1="999.3975" y2="1021.3975"/><polygon fill="#383838" points="654.125,1011.3975,658.125,1021.3975,662.125,1011.3975,658.125,1015.3975" style="stroke: #383838; stroke-width: 1.0;"/><line style="stroke: #383838; stroke-width: 1.5;" x1="531.125" x2="531.125" y1="1069.6631" y2="1087.6631"/><line style="stroke: #383838; stroke-width: 1.5;" x1="531.125" x2="582.625" y1="1087.6631" y2="1087.6631"/><polygon fill="#383838" points="572.625,1083.6631,582.625,1087.6631,572.625,1091.6631,576.625,1087.6631" style="stroke: #383838; stroke-width: 1.0;"/><line style="stroke: #383838; stroke-width: 1.5;" x1="658.125" x2="658.125" y1="1055.5303" y2="1087.6631"/><line style="stroke: #383838; stroke-width: 1.5;" x1="658.125" x2="606.625" y1="1087.6631" y2="1087.6631"/><polygon fill="#383838" points="616.625,1083.6631,606.625,1087.6631,616.625,1091.6631,612.625,1087.6631" style="stroke: #383838; stroke-width: 1.0;"/><line style="stroke: #383838; stroke-width: 1.5;" x1="594.625" x2="594.625" y1="967.3975" y2="987.3975"/><polygon fill="#383838" points="590.625,977.3975,594.625,987.3975,598.625,977.3975,594.625,981.3975" style="stroke: #383838; stroke-width: 1.0;"/><line style="stroke: #383838; stroke-width: 1.5;" x1="594.625" x2="594.625" y1="1099.6631" y2="1119.6631"/><polygon fill="#383838" points="590.625,1109.6631,594.625,1119.6631,598.625,1109.6631,594.625,1113.6631" style="stroke: #383838; stroke-width: 1.0;"/><line style="stroke: #383838; stroke-width: 1.5;" x1="594.625" x2="594.625" y1="1167.9287" y2="1191.7617"/><polygon fill="#383838" points="590.625,1181.7617,594.625,1191.7617,598.625,1181.7617,594.625,1185.7617" style="stroke: #383838; stroke-width: 1.0;"/></g></svg>