<?xml version="1.0" encoding="UTF-8" standalone="no"?><svg xmlns="http://www.w3.org/2000/svg" xmlns:xlink="http://www.w3.org/1999/xlink" contentScriptType="application/ecmascript" contentStyleType="text/css" height="435px" preserveAspectRatio="none" style="width:604px;height:435px;" version="1.1" viewBox="0 0 604 435" width="604px" zoomAndPan="magnify"><defs><filter height="300%" id="fk986n6" width="300%" x="-1" y="-1"><feGaussianBlur result="blurOut" stdDeviation="2.0"/><feColorMatrix in="blurOut" result="blurOut2" type="matrix" values="0 0 0 0 0 0 0 0 0 0 0 0 0 0 0 0 0 0 .4 0"/><feOffset dx="4.0" dy="4.0" in="blurOut2" result="blurOut3"/><feBlend in="SourceGraphic" in2="blurOut3" mode="normal"/></filter></defs><g><text fill="#000000" font-family="sans-serif" font-size="18" lengthAdjust="spacingAndGlyphs" textLength="46" x="287" y="17.4023">PSSM</text><text fill="#000000" font-family="sans-serif" font-size="18" lengthAdjust="spacingAndGlyphs" textLength="157" x="231.5" y="38.6016">Use Case Diagram</text><!--cluster S--><rect fill="#FFFFFF" filter="url(#fk986n6)" height="224" style="stroke: #000000; stroke-width: 2.0;" width="528" x="22" y="66.3984"/><text fill="#000000" font-family="sans-serif" font-size="14" font-weight="bold" lengthAdjust="spacingAndGlyphs" textLength="259" x="156.5" y="81.9336">Temporary Staff Fullfilment System</text><ellipse cx="390.9787" cy="125.2969" fill="#F8F8F8" filter="url(#fk986n6)" rx="73.9787" ry="23.8985" style="stroke: #383838; stroke-width: 1.5;"/><text fill="#000000" font-family="sans-serif" font-size="14" lengthAdjust="spacingAndGlyphs" textLength="38" x="371.9787" y="118.1494">Fulfill</text><text fill="#000000" font-family="sans-serif" font-size="14" lengthAdjust="spacingAndGlyphs" textLength="112" x="334.9787" y="134.6377">Staffing Request</text><ellipse cx="459.9273" cy="250.2818" fill="#F8F8F8" filter="url(#fk986n6)" rx="73.9273" ry="23.8834" style="stroke: #383838; stroke-width: 1.5;"/><text fill="#000000" font-family="sans-serif" font-size="14" lengthAdjust="spacingAndGlyphs" textLength="37" x="441.4273" y="243.1096">Open</text><text fill="#000000" font-family="sans-serif" font-size="14" lengthAdjust="spacingAndGlyphs" textLength="112" x="403.9273" y="259.5979">Staffing Request</text><ellipse cx="286.2001" cy="250.3285" fill="#F8F8F8" filter="url(#fk986n6)" rx="65.2001" ry="23.93" style="stroke: #383838; stroke-width: 1.5;"/><text fill="#000000" font-family="sans-serif" font-size="14" lengthAdjust="spacingAndGlyphs" textLength="35" x="268.7001" y="243.2322">Place</text><text fill="#000000" font-family="sans-serif" font-size="14" lengthAdjust="spacingAndGlyphs" textLength="98" x="237.2001" y="259.7205">Staff Members</text><ellipse cx="111.7688" cy="250.5879" fill="#F8F8F8" filter="url(#fk986n6)" rx="73.2688" ry="23.6895" style="stroke: #383838; stroke-width: 1.5;"/><text fill="#000000" font-family="sans-serif" font-size="14" lengthAdjust="spacingAndGlyphs" textLength="20" x="101.7688" y="243.0973">Fill</text><text fill="#000000" font-family="sans-serif" font-size="14" lengthAdjust="spacingAndGlyphs" textLength="112" x="55.7688" y="259.5856">Staffing Request</text><!--entity CM--><ellipse cx="460" cy="347.3984" fill="#F8F8F8" filter="url(#fk986n6)" rx="8" ry="8" style="stroke: #383838; stroke-width: 2.0;"/><path d="M460,355.3984 L460,382.3984 M447,363.3984 L473,363.3984 M460,382.3984 L447,397.3984 M460,382.3984 L473,397.3984 " fill="#F8F8F8" filter="url(#fk986n6)" style="stroke: #383838; stroke-width: 2.0;"/><text fill="#000000" font-family="sans-serif" font-size="14" lengthAdjust="spacingAndGlyphs" textLength="123" x="398.5" y="417.9336">Contract Manager</text><text fill="#000000" font-family="sans-serif" font-size="14" lengthAdjust="spacingAndGlyphs" textLength="0" x="462" y="434.4219"/><!--entity C--><ellipse cx="582" cy="347.3984" fill="#F8F8F8" filter="url(#fk986n6)" rx="8" ry="8" style="stroke: #383838; stroke-width: 2.0;"/><path d="M582,355.3984 L582,382.3984 M569,363.3984 L595,363.3984 M582,382.3984 L569,397.3984 M582,382.3984 L595,397.3984 " fill="#F8F8F8" filter="url(#fk986n6)" style="stroke: #383838; stroke-width: 2.0;"/><text fill="#000000" font-family="sans-serif" font-size="14" lengthAdjust="spacingAndGlyphs" textLength="40" x="562" y="417.9336">Client</text><text fill="#000000" font-family="sans-serif" font-size="14" lengthAdjust="spacingAndGlyphs" textLength="0" x="584" y="434.4219"/><!--entity PE--><ellipse cx="277" cy="347.3984" fill="#F8F8F8" filter="url(#fk986n6)" rx="8" ry="8" style="stroke: #383838; stroke-width: 2.0;"/><path d="M277,355.3984 L277,382.3984 M264,363.3984 L290,363.3984 M277,382.3984 L264,397.3984 M277,382.3984 L290,397.3984 " fill="#F8F8F8" filter="url(#fk986n6)" style="stroke: #383838; stroke-width: 2.0;"/><text fill="#000000" font-family="sans-serif" font-size="14" lengthAdjust="spacingAndGlyphs" textLength="106" x="224" y="417.9336">PSSM Employee</text><text fill="#000000" font-family="sans-serif" font-size="14" lengthAdjust="spacingAndGlyphs" textLength="0" x="279" y="434.4219"/><!--entity TE--><ellipse cx="112" cy="347.3984" fill="#F8F8F8" filter="url(#fk986n6)" rx="8" ry="8" style="stroke: #383838; stroke-width: 2.0;"/><path d="M112,355.3984 L112,382.3984 M99,363.3984 L125,363.3984 M112,382.3984 L99,397.3984 M112,382.3984 L125,397.3984 " fill="#F8F8F8" filter="url(#fk986n6)" style="stroke: #383838; stroke-width: 2.0;"/><text fill="#000000" font-family="sans-serif" font-size="14" lengthAdjust="spacingAndGlyphs" textLength="145" x="39.5" y="417.9336">Temporary Employee</text><text fill="#000000" font-family="sans-serif" font-size="14" lengthAdjust="spacingAndGlyphs" textLength="0" x="114" y="434.4219"/><path d="M403.817,149.2454 C415.387,169.8714 432.43,200.2514 444.708,222.1384 " fill="none" style="stroke: #383838; stroke-width: 1.0; stroke-dasharray: 7.0,7.0;"/><polygon fill="#383838" points="447.252,226.6734,446.3365,216.8672,444.8054,222.3129,439.3597,220.7818,447.252,226.6734" style="stroke: #383838; stroke-width: 1.0;"/><text fill="#000000" font-family="sans-serif" font-size="13" lengthAdjust="spacingAndGlyphs" textLength="60" x="430" y="192.9668">«include»</text><path d="M371.985,148.6724 C354.071,169.6584 327.229,201.1024 308.31,223.2644 " fill="none" style="stroke: #383838; stroke-width: 1.0; stroke-dasharray: 7.0,7.0;"/><polygon fill="#383838" points="304.873,227.2894,313.7591,223.0425,308.1198,223.487,307.6753,217.8476,304.873,227.2894" style="stroke: #383838; stroke-width: 1.0;"/><text fill="#000000" font-family="sans-serif" font-size="13" lengthAdjust="spacingAndGlyphs" textLength="60" x="346" y="192.9668">«include»</text><path d="M345.786,144.5854 C321.198,154.6104 290.313,167.4194 263,179.3984 C226.83,195.2624 186.237,214.1414 156.255,228.2934 " fill="none" style="stroke: #383838; stroke-width: 1.0; stroke-dasharray: 7.0,7.0;"/><polygon fill="#383838" points="151.537,230.5234,161.3832,230.2951,156.0578,228.3874,157.9655,223.0619,151.537,230.5234" style="stroke: #383838; stroke-width: 1.0;"/><text fill="#000000" font-family="sans-serif" font-size="13" lengthAdjust="spacingAndGlyphs" textLength="60" x="264" y="192.9668">«include»</text><path d="M112,273.9944 C112,291.2584 112,315.6944 112,337.3754 " fill="none" style="stroke: #383838; stroke-width: 1.0;"/><path d="M460,274.6054 C460,291.7944 460,315.8434 460,337.2334 " fill="none" style="stroke: #383838; stroke-width: 1.0;"/><path d="M441.906,142.9244 C479.623,158.1324 528.406,184.7404 552,226.3984 C571.221,260.3344 578.437,304.1774 581.005,337.3844 " fill="none" style="stroke: #383838; stroke-width: 1.0;"/><path d="M480.6,273.5454 C496.624,290.8394 519.36,315.5244 539,337.3984 C546.561,345.82 554.777,355.139 561.981,363.3693 " fill="none" style="stroke: #383838; stroke-width: 1.0;"/><path d="M284.453,274.6054 C283.307,291.7944 281.704,315.8434 280.278,337.2334 " fill="none" style="stroke: #383838; stroke-width: 1.0;"/><path d="M137.781,272.4924 C160.712,291.2544 194.975,319.2874 223.771,342.8473 " fill="none" style="stroke: #383838; stroke-width: 1.0;"/></g></svg>